<?xml version="1.0" encoding="UTF-8"?>
<svg data-name="Layer 2" viewBox="0 0 459 495" xmlns="http://www.w3.org/2000/svg"><defs><style>.cls-1 {
        fill: #f78154;
      }

      .cls-2 {
        fill: #28e291;
      }

      .cls-3 {
        fill: #9381ff;
      }</style></defs><g data-name="Waypoint Logo"><polygon class="cls-1" points="294 108 163 115 235 222"/><polygon class="cls-2" points="240 240 234 494 363 297"/><polygon class="cls-3" points="377 288 459 272 407 144"/><polygon class="cls-3" points="224 495 230 239 94.2 296"/><polygon class="cls-1" points="51.1 144 0 270 80.4 287"/><polygon class="cls-1" points="210 11.8 71.2 119 151 106"/><polygon class="cls-2" points="294 97.7 229 0 163 105"/><polygon class="cls-2" points="228 230 155 121 95.4 284"/><polygon class="cls-1" points="258 474 451 284 373 299"/><polygon class="cls-3" points="146 117 58.6 131 88.2 275"/><polygon class="cls-2" points="399 131 310 109 369 276"/></g></svg>
