<?xml version="1.0" encoding="UTF-8"?>
<svg id="Layer_2" data-name="Layer 2" xmlns="http://www.w3.org/2000/svg" viewBox="0 0 169.44 36.85">
  <defs>
    <style>
      .cls-1 {
        fill: #fff;
      }

      .cls-2 {
        fill: #f78154;
      }

      .cls-3 {
        fill: #28e291;
      }

      .cls-4 {
        fill: #9381ff;
      }
    </style>
  </defs>
  <g id="Waypoint_Logo" data-name="Waypoint Logo">
    <g>
      <polygon class="cls-2" points="21.91 8.01 12.13 8.56 17.49 16.55 21.91 8.01"/>
      <polygon class="cls-3" points="17.89 17.84 17.42 36.76 27.03 22.09 17.89 17.84"/>
      <polygon class="cls-4" points="28.04 21.47 34.17 20.29 30.28 10.71 28.04 21.47"/>
      <polygon class="cls-4" points="16.68 36.85 17.15 17.83 7.02 22.01 16.68 36.85"/>
      <polygon class="cls-2" points="3.81 10.72 0 20.11 5.99 21.36 3.81 10.72"/>
      <polygon class="cls-2" points="15.65 .88 5.3 8.85 11.24 7.89 15.65 .88"/>
      <polygon class="cls-3" points="21.87 7.28 17.07 0 12.15 7.82 21.87 7.28"/>
      <polygon class="cls-3" points="16.98 17.1 11.56 9.03 7.1 21.18 16.98 17.1"/>
      <polygon class="cls-2" points="19.24 35.33 33.56 21.16 27.79 22.27 19.24 35.33"/>
      <polygon class="cls-4" points="10.9 8.69 4.36 9.75 6.57 20.49 10.9 8.69"/>
      <polygon class="cls-3" points="29.73 9.72 23.1 8.13 27.48 20.56 29.73 9.72"/>
    </g>
    <g>
      <path class="cls-1" d="M47.11,28.86c-.05-.23-.24-.38-.56-.45-.32-.07-.84-.09-1.56-.05-.3.04-.58.01-.85-.07-.27-.09-.46-.22-.58-.38-.12-.17-.13-.33-.03-.5.11-.25.48-.51,1.11-.79.63-.28,1.37-.43,2.24-.44.42,0,.84-.01,1.27-.02.16-.21.31-.41.46-.62.14-.23.26-.48.37-.75.11-.27.28-.64.51-1.12.13-.29.31-.7.54-1.21.23-.52.45-1.08.67-1.67.22-.59.39-1.13.53-1.61.14-.48.17-.74.25-1,.06-.19.17-.51.28-.95.11-.45.2-.91.27-1.38.06-.39.09-.69.11-.9,0-.08.01-.16.03-.24.24-1.59.27-2.71.25-3.35-.02-.66-.09-1-.18-1.02-.08,0-.27.01-.56.04-.29.02-.62.05-.97.09-.35.04-.66.08-.93.12-.27.05-.43.09-.47.13-.14.04-.34.04-.54-.07-.31-.18-.52-.4-.66-.6-.08-.19-.15-.36-.19-.53-.04-.17-.02-.28.05-.35.09-.13.33-.27.72-.43.39-.16.84-.31,1.35-.44.51-.13.99-.24,1.44-.3.33-.05.65-.13.95-.25.3-.12.41-.27.66-.44.16-.07.32-.12.48-.17.16-.04.33-.06.53-.04.26.04.51.15.91.14.4,0,.82-.02,1.27-.05,1.11-.12,1.93-.1,2.46.08.53.17.91.41,1.15.7.23.4.31.73.25,1-.06.27-.32.3-.62.37-.17.04-.41.08-.73.12-.31.04-.73.07-1.25.09-1.29.14-1.97.3-2.02.47-.06.09-.09.12-.13.2-.05.09-.08.2-.11.34,0,.17.03.36.04.75,0,.41,0,.84-.07,1.3-.02.27-.06.66-.13,1.17-.07.5-.15,1.02-.25,1.56-.1.54-.21,1.02-.31,1.45-.1.43-.19.72-.24.86-.07.19-.13.39-.17.61-.04.22-.08.38-.09.49-.26,1.03-.54,1.88-.78,2.57-.24.69-.48,1.29-.69,1.8-.22.51-.43,1-.64,1.47-.21.47-.47,1-.78,1.58.7-.06,1.3-.1,1.84-.14.96-.1,1.61-.15,1.96-.17.34-.02.54.01.58.08.04.07.07.21.09.4.06.65.11,1.04-.45,1.42-.56.37-1.41.54-2.54.51-1.06.03-1.85.06-2.35.08-.51.03-.84.07-1,.13-.16.06-.27.16-.33.31-.1.33-.38.53-.83.6-.45.07-.77-.1-.98-.5Z"/>
      <path class="cls-1" d="M67.66,27.03c-.43-.05-.78-.15-1.04-.31-.26-.16-.43-.49-.53-.98-.02-.34,0-.7.07-1.07.06-.37.14-.73.22-1.08.08-.35.13-.65.16-.91,0-.04.01-.13.02-.26.01-.13.02-.24.03-.35-.01-.32-.08-.52-.18-.59-.1-.07-.28-.06-.55.05-.43.21-.89.49-1.41.84-.51.35-1.06.75-1.64,1.2-.58.45-1.19.93-1.84,1.43-.53.5-.93.91-1.21,1.23-.28.31-.49.42-.75.47-.25.01-.42-.02-.52-.08-.17-.11-.28-.26-.44-.43-.1-.17-.22-.39-.35-.65-.14-.26-.19-.37-.24-.52-.05-.2.14-.64.24-.91.09-.27.22-.56.36-.85.15-.29.3-.57.5-.95.09-.15.2-.36.28-.52.08-.16.17-.29.26-.49.15-.32.26-.66.43-1.04.16-.38.31-.74.45-1.08.22-.55.37-1.02.48-1.42.1-.4.18-.83.22-1.3-.02-.04-.02-.1.01-.19.03-.08.09-.14.16-.16,0,0,.02,0,.03,0,.01,0,.02,0,.03,0,.13-.11.39-.12.78-.05.39.07.69.19.9.36.44.38.67.88.67,1.49,0,.61-.28,1.42-.89,2.41-.15.34-.31.65-.47.93-.17.29-.25.48-.26.59.33-.25.61-.47.84-.65.23-.18.42-.32.58-.43.1-.11.33-.3.67-.59.34-.29.71-.59,1.11-.91.39-.32.71-.56.94-.73.21-.17.48-.35.81-.53.33-.18.53-.27.61-.27.2,0,.44.07.73.22.29.15.56.32.8.53.25.2.44.39.43.56,0,.08-.01.2-.03.34-.02.14-.03.26-.03.37-.03.34-.04.75-.05,1.23-.01.48,0,.96-.08,1.44-.08.45-.18.79-.21,1.1,0,.09-.03.32-.02.38,0,.08.02.09.03.19.02.15.05.3.08.45.03.15.07.32.13.5.05.18.14.4.16.69-.08.3-.25.55-.57.81-.32.27-.61.43-.89.49Z"/>
      <path class="cls-1" d="M79.17,28.49c-.27.06-.52,0-.74-.21-.22-.21-.36-.43-.43-.66-.07-.34-.1-.67-.09-.98.01-.31.03-.67.06-1.08.03-.36.06-.73.09-1.09-.44.4-.89.79-1.35,1.19-.76.68-1.47,1.17-2.11,1.45-.64.29-1.2.43-1.68.42-.21-.04-.45-.2-.72-.47-.26-.27-.5-.57-.69-.9-.2-.33-.33-.61-.4-.82-.08-.3-.06-.72.05-1.25.11-.53.28-1.12.52-1.76.23-.64.5-1.27.8-1.89.3-.62.63-1.15,1.01-1.6.64-1.07,1.41-1.74,2.37-2.01.95-.27,1.81-.18,2.57.27.36.19.62.27.77.22.16-.04.25-.18.28-.42.07-.34.14-.67.22-.97.08-.3.19-.75.33-1.35.37-1.63.65-2.92.91-3.84.25-.93.47-1.74.66-2.43.15-.5.31-.84.5-1.04.19-.2.37-.28.54-.26.22,0,.52.08.89.25.36.17.62.41.77.71.11.19.17.4.19.61.02.22-.02.44-.11.68-.2.52-.42,1.2-.68,2.06-.26.85-.52,1.79-.79,2.8-.27,1.01-.54,2.01-.81,3-.27.99-.51,1.86-.71,2.61-.12.47-.23,1.08-.32,1.81-.1.73-.19,1.48-.28,2.24-.09.76-.16,1.44-.2,2.03-.05.59-.06.97-.04,1.15.07.43.02.75-.13.97-.15.21-.34.36-.58.43-.23.07-.46.12-.69.14ZM74.76,24.57c.29-.11.55-.23.78-.38.23-.15.51-.34.82-.58.64-.49,1.09-.92,1.38-1.28.29-.36.52-.81.7-1.35.11-.32.12-.6.04-.84-.08-.24-.23-.46-.45-.68-.21-.19-.49-.27-.82-.24-.33.03-.72.26-1.15.69-.48.47-.9,1.02-1.26,1.64-.36.62-.7,1.51-1.04,2.66-.06.21-.01.36.16.45.17.09.45.06.84-.09Z"/>
      <path class="cls-1" d="M83.28,27.35c-.14-.17-.23-.43-.26-.78-.03-.34-.02-.68.03-1.02.05-.33.13-.56.2-.77.04-.18.09-.28.11-.4.02-.1.04-.18.05-.26.01-.09.05-.25.12-.46.07-.22.14-.42.21-.61.16-.34.34-.79.54-1.34.2-.55.39-1.11.57-1.68.18-.57.33-1.07.45-1.49.11-.42.17-.68.2-.76.07-.21.19-.4.46-.42.26-.02.52.02.86.32.34.3.61.63.8.97.13.21.22.4.18.68-.04.28-.17.68-.4,1.2-.08.17-.18.46-.3.86-.12.4-.23.7-.3.98-.05.19-.14.42-.26.74-.12.31-.23.61-.33.89-.05.11-.1.31-.16.6-.06.29-.13.59-.22.89-.08.3-.21.5-.3.71-.34.7-.64,1.4-1.11,1.55-.47.15-.85.02-1.14-.39ZM86.82,14.38c-.23-.17-.4-.38-.53-.63-.12-.25-.2-.47-.22-.66-.03-.19,0-.32.04-.44.1-.4.11-.59.28-.96.17-.36.26-.55.41-.87.11-.18.2-.31.25-.43.06-.12.26-.18.34-.21.26-.07.44-.11.89.09.45.19.79.46,1.02.81.21.41.3.83.26,1.26-.04.43-.23.89-.56,1.36-.27.43-.63.71-1.08.83-.45.12-.82.07-1.1-.14Z"/>
      <path class="cls-1" d="M94.9,27.29c-.62.37-1.27.58-1.95.63-.68.05-1.3-.05-1.86-.3-.56-.25-1-.62-1.33-1.12-.18-.28-.33-.73-.47-1.35-.14-.62-.12-1.45.04-2.51.15-.99.46-2,.9-3.01.45-1.02.98-1.91,1.62-2.69.63-.78,1.32-1.31,2.09-1.59.27-.11.55-.19.83-.24.29-.05.66-.06,1.14-.02.45.06.86.19,1.22.37.36.18.62.38.78.6.32.35.53.68.63,1.01.1.32.14.64.12.94-.1.69-.38,1.44-.84,2.24-.47.8-1.12,1.4-1.95,1.79-.34.15-.73.25-1.19.29-.46.04-1.07-.02-1.85-.2-.47-.11-.78-.05-.93.16-.15.22-.23.64-.24,1.26.02.39.09.73.21,1.02.11.29.35.49.7.6.45.09.78.09.98.02.2-.08.45-.19.76-.34.16-.11.32-.23.47-.36.15-.13.31-.26.46-.39.15-.13.28-.23.38-.29.1-.09.2-.14.3-.16.1-.02.2-.03.3-.03.22.02.42.15.61.39.19.24.31.47.37.68,0,.17-.11.42-.32.73-.21.31-.49.64-.83.97-.34.34-.72.63-1.14.89ZM94.74,20.05c.14-.07.34-.22.61-.45.27-.24.51-.49.72-.76.22-.27.32-.48.32-.63,0-.24-.14-.44-.43-.62-.29-.17-.65-.21-1.1-.1-.16.04-.34.16-.56.36-.21.19-.43.42-.64.67-.22.25-.4.49-.56.71-.16.23-.27.41-.33.54.08.11.23.19.47.26.23.07.49.1.78.1.29,0,.52-.02.72-.06Z"/>
      <path class="cls-1" d="M100.36,31.88c-.12.09-.4-.02-.82-.31-.42-.29-.76-.61-1.03-.96-.13-.17-.22-.36-.25-.55-.03-.2-.03-.57.08-1.1.05-.26.09-.44.12-.63.03-.22.07-.42.08-.51,0-.13.05-.43.14-.91.09-.48.18-.98.27-1.51.09-.53.17-.94.24-1.22,0-.02.02-.1.05-.23.03-.13.06-.23.08-.29.04-.19.1-.43.16-.71.05-.23.1-.53.16-.9.02-.15.06-.31.1-.46.13-.47.25-.93.34-1.39.11-.53.15-.75.2-.93.13-.44.19-.66.32-.91.05-.17.13-.37.23-.6.1-.23.16-.48.24-.63.38-1.24.72-2.16.97-2.9.25-.74.46-1.29.74-1.91,0,.02.26-.75.43-1.14.2-.44.33-.67.46-.91.23-.42.38-.68.73-1.12.35-.44.73-.87,1.14-1.28.27-.27.5-.49.7-.67.17-.15.35-.28.55-.38.35-.18.69-.33,1-.45.39-.15.81-.23,1.24-.23.39,0,.74.09,1.03.28.29.19.73.56,1.3,1.12.19.28.28.55.27.81-.01.26-.07.48-.18.65-.15.35-.38.77-.68,1.28-.3.51-.55.98-.84,1.36-.27.35-.41.48-.58.63-.24.15-.49.19-.75.13-.26-.07-.41-.23-.41-.55,0-.15.02-.37.04-.63.06-.28.16-.55.26-.77.09-.22.18-.4.27-.55.16-.28.22-.55.15-.81-.07-.26-.45-.52-.77-.33-.15.09-.29.21-.46.37-.17.16-.25.28-.45.49-.19.21-.36.4-.5.59-.14.18-.31.4-.41.53-.24.38-.33.58-.53.94-.14.22-.16.32-.26.51-.1.2-.15.3-.19.4-.05.13-.09.26-.11.33-.02.06-.06.21-.13.37-.19.44-.24.58-.36.88-.08.17-.18.33-.27.52-.09.18-.11.27-.18.36-.03.07-.07.15-.1.22-.17.5-.31.88-.41,1.14-.1.26-.15.41-.15.46,0,.09.12.13.35.13.24,0,.52-.04.85-.11.33-.08.66-.16.97-.24.27-.09.47-.13.59-.13.12,0,.3.05.56.13.19.06.28.3.38.57.1.27.17.54.22.81.05.27.05.47.01.6-.02.09-.24.21-.66.36-.42.15-.84.27-1.25.36-.35.09-.75.18-1.19.28-.44.1-.83.19-1.16.29-.33.1-.48.14-.56.21-.08.05-.11.12-.17.23-.05.11-.05.21-.07.29-.07.3-.08.44-.15.68-.04.13-.1.4-.2.8-.09.4-.18.83-.28,1.3-.09.47-.18.9-.25,1.3-.07.4-.11.67-.12.8-.05.26-.07.42-.15.66-.07.22-.12.33-.15.52-.06.16-.09.32-.12.46-.02.14-.04.26-.04.34,0,.02,0,.07,0,.13,0,.07-.01.13-.03.2-.03.22-.06.5-.1.86-.04.36-.07.71-.08,1.06-.04.31-.08.63-.12.94-.03.28-.08.53-.13.73-.06.21-.14.36-.25.47Z"/>
      <path class="cls-1" d="M108.2,21.79c.05-.18.39-1.12.69-1.64.12-.22.29-.5.53-.86.24-.36.49-.72.78-1.07.28-.36.55-.64.78-.86.49-.46.95-.82,1.38-1.1.43-.28.86-.48,1.29-.58.43-.11.88-.16,1.35-.16.46,0,.77.23,1.13.47.44.28.75.56.93.93.18.37.3.84.35,1.43.06.65,0,1.44-.17,2.39-.17.94-.62,2.03-1.37,3.26-.47.78-.93,1.39-1.39,1.82-.46.43-.97.84-1.54,1.2-.41.3-.86.49-1.33.55-.48.07-.95.12-1.41.16-.26,0-.47-.05-.62-.16-.15-.11-.34-.26-.57-.45-.39-.43-.7-.9-.93-1.4-.23-.5-.28-.93-.26-1.3.01-.35.02-1.3.38-2.62ZM113.15,23.75c.43-.41.73-.87.9-1.37.18-.5.37-1.08.58-1.75.08-.2.11-.32.16-.65.04-.3.03-.6.01-.89-.02-.29-.11-.42-.21-.5-.18-.15-.35-.19-.53-.11-.18.08-.4.22-.68.44-.59.54-1.13,1.16-1.63,1.87-.5.7-.84,1.57-1.02,2.58-.05.54,0,.95.18,1.22.17.27.45.35.84.23.38-.12.85-.47,1.39-1.06Z"/>
      <path class="cls-1" d="M119.58,27.05c-.19-.15-.4-.34-.62-.58-.22-.24-.32-.57-.28-1.01.03-.6.08-1.14.16-1.61.08-.47.18-1,.3-1.61.03-.26.12-.7.28-1.33.16-.63.35-1.31.59-2.04.24-.73.49-1.43.76-2.09.27-.66.51-1.15.72-1.47.22-.22.55-.32.97-.32.42,0,.71.09.86.26.21.19.26.54.17,1.02-.09.49-.39,1.24-.87,2.25-.1.26-.22.53-.37.83-.14.29-.25.53-.3.71-.06.18-.04.26.06.24.11-.24.33-.51.64-.83.31-.31.65-.62,1-.92.35-.3.69-.57,1.01-.81.32-.24.54-.39.66-.45.16-.11.34-.2.55-.27.21-.08.35-.13.43-.18.46-.24.96-.33,1.5-.27.54.05.62.1.8.33.05.09.21.23.36.45.13.15.24.43.26.56,0,.15-.1.31-.37.59-.27.28-.56.43-.87.45-.25.02-.48.08-.68.16-.2.09-.43.19-.7.32-.74.47-1.41.9-2,1.26-.59.37-1.19.93-1.79,1.69-.13.17-.27.34-.42.49-.15.15-.3.37-.44.65-.09.11-.18.35-.26.71-.08.37-.14.72-.19,1.05-.05.34-.07.53-.07.6-.09.41-.2.71-.32.91-.21.35-.43.56-.66.65-.22.09-.51-.04-.85-.39Z"/>
      <path class="cls-1" d="M143.9,27.03c-.21,0-.46-.19-.81-.42-.34-.23-.67-.58-.97-1.05-.3-.47-.49-1.07-.55-1.82-.05-.64-.04-1.09,0-1.36.05-.27,0-.41-.14-.43-.1-.02-.29.08-.57.29-.28.21-.64.56-1.07,1.03-.43.47-.94,1.09-1.51,1.87-.21.21-.44.48-.68.79-.25.31-.5.54-.77.7-.27.15-.53.12-.78-.09-.11-.1-.23-.19-.34-.29-.16-.13-.3-.3-.43-.51-.13-.21-.18-.4-.16-.55.18-.84.38-1.67.59-2.51.2-.56.34-.96.41-1.22.08-.26.11-.42.1-.48-.01-.06-.07-.09-.16-.06-.12.02-.28.13-.49.34-.21.2-.3.26-.44.41-.07.1-.16.18-.28.35-.12.17-.23.32-.34.45-.11.13-.3.37-.57.73-.27.35-.55.73-.85,1.11-.23.26-.5.6-.79,1.03-.29.43-.55.82-.76,1.16-.22.35-.35.52-.41.52-.36-.02-.7-.15-1.02-.38-.32-.23-.54-.52-.68-.87-.14-.24-.2-.67-.15-1.31.05-.63.16-1.65.38-3.05.07-.32.13-.6.2-.84.06-.24.13-.47.21-.71.08-.24.17-.51.27-.81.11-.3.25-.67.44-1.1.1-.3.15-.59.14-.85-.01-.27-.02-.49-.03-.66.01-.32.12-.58.32-.77.2-.19.42-.33.66-.4.24-.07.43-.09.56-.05.55.07.91.28,1.08.65.18.37.27.72.27,1.06,0,.32-.04.61-.14.87-.11.26-.19.47-.25.64-.11.29-.22.58-.33.87-.2.49-.33.85-.41,1.08-.08.23-.13.38-.14.45,0,.08,0,.14,0,.21.02.06.11.03.26-.1.15-.13.34-.31.56-.53.22-.23.43-.42.62-.6.35-.32.72-.65,1.13-.98.4-.33.8-.63,1.2-.88.19-.12.36-.22.52-.31.34-.18.74-.17,1.05.05.11.08.22.18.33.29.28.3.45.56.53.77.1.32.11.61.05.87-.06.26-.11.49-.15.71-.02.09-.05.25-.1.48-.05.24-.13.56-.22.96.22-.26.43-.48.61-.66.19-.18.38-.35.57-.5.95-.81,1.73-1.33,2.31-1.55.58-.22,1.07-.04,1.49.56.24.23.4.55.48.96.09.4.15.95.2,1.63.04.28.09.58.16.92.07.34.14.64.22.89.08.25.15.41.2.48.07.08.19.16.36.24.17.07.33.13.47.17.3.15.5.42.6.81.1.39.02.7-.26.91-.26.19-.55.31-.88.36-.32.05-.59.03-.93.05Z"/>
      <path class="cls-1" d="M152.75,27.07c-.51.36-1.09.58-1.76.64-.66.06-1.31-.03-1.95-.27-.64-.24-1.19-.6-1.65-1.08-.25-.27-.53-.71-.81-1.32-.28-.6-.42-1.43-.4-2.47.03-.98.25-1.96.68-2.96.43-1,1-1.88,1.69-2.64.69-.76,1.45-1.27,2.25-1.55.29-.1.58-.18.87-.23.29-.05.67-.05,1.14-.01.44.07.83.19,1.17.37.33.18.57.38.71.59.28.34.46.66.54.98.08.31.1.62.07.91-.12.67-.4,1.4-.83,2.17-.43.78-1.02,1.36-1.81,1.74-.32.15-.7.24-1.15.29-.45.04-1.07-.02-1.88-.18-.48-.1-.79-.05-.92.16-.13.21-.16.63-.06,1.24.09.38.22.71.39,1,.17.28.45.48.83.58.47.08.8.08.99,0,.18-.08.41-.19.69-.34.14-.11.28-.22.4-.35.13-.13.26-.25.38-.38.13-.13.24-.22.33-.29.09-.08.18-.14.27-.16.09-.02.19-.03.29-.03.22.02.44.15.68.38.23.23.4.45.5.66.03.17-.03.41-.16.71-.14.31-.33.62-.59.95-.26.33-.55.62-.89.88ZM151.38,20.02c.14-.06.33-.21.59-.44.26-.23.5-.48.72-.74.22-.26.33-.47.33-.62,0-.23-.13-.43-.41-.6-.28-.17-.64-.2-1.1-.1-.16.04-.35.16-.57.35-.22.19-.44.41-.66.65-.22.24-.41.47-.56.7-.15.22-.26.4-.32.52.08.11.24.19.48.25.24.06.5.09.78.09.28,0,.52-.02.72-.06Z"/>
      <path class="cls-1" d="M157.5,26.8c-.22-.14-.46-.33-.73-.56-.27-.23-.42-.55-.45-.97-.06-.59-.08-1.11-.05-1.56.03-.45.07-.97.15-1.56.01-.25.07-.68.2-1.29.13-.61.31-1.27.54-1.98.24-.71.51-1.39.82-2.02.3-.64.59-1.11.83-1.42.24-.21.58-.31,1-.31.42,0,.7.09.84.26.19.19.22.52.09.99-.13.47-.46,1.19-.95,2.17-.1.25-.23.52-.37.8-.15.28-.24.51-.29.69-.05.18-.03.26.07.23.11-.23.31-.5.62-.8.31-.3.64-.6,1-.89.36-.29.7-.55,1.03-.78.32-.23.55-.37.67-.43.16-.1.35-.19.56-.26.21-.07.36-.13.44-.17.47-.23.98-.31,1.51-.26.53.05.73.2.91.46.07.11.12.21.22.38.05.14.1.41.11.53,0,.14-.05.26-.26.47-.27.27-.56.41-.87.43-.25.02-.48.07-.68.16-.2.08-.43.19-.7.31-.74.46-1.39.86-1.97,1.22-.58.35-1.15.9-1.69,1.63-.12.17-.25.32-.38.47-.14.15-.27.36-.38.63-.08.1-.15.34-.18.69-.04.36-.05.7-.05,1.02,0,.32.01.52.03.58-.02.4-.08.69-.17.88-.15.34-.33.55-.53.64-.2.09-.52-.04-.93-.37Z"/>
    </g>
  </g>
</svg>