<?xml version="1.0" encoding="UTF-8"?>
<svg viewBox="0 0 415 369" xmlns="http://www.w3.org/2000/svg"><defs><style>.cls-1 {
        stroke-width: .75px;
      }

      .cls-1, .cls-2 {
        stroke: #332621;
      }

      .cls-1, .cls-2, .cls-3 {
        fill: none;
        stroke-linecap: round;
        stroke-linejoin: round;
      }

      .cls-4 {
        fill: #332621;
      }

      .cls-2 {
        stroke-width: .25px;
      }

      .cls-5 {
        fill: #ff5e5c;
      }

      .cls-6 {
        fill: #2a2a6a;
      }

      .cls-7 {
        fill: #54633a;
      }

      .cls-8 {
        fill: #716ec7;
      }

      .cls-9 {
        mix-blend-mode: soft-light;
        opacity: .5;
      }

      .cls-10 {
        isolation: isolate;
      }

      .cls-11 {
        fill: #fff;
      }

      .cls-12 {
        fill: #ffc947;
      }

      .cls-3 {
        stroke: #f9e7d7;
        stroke-width: .5px;
      }

      .cls-13 {
        fill: #788e55;
      }

      .cls-14 {
        fill: #4545a1;
      }</style></defs><g class="cls-10"><g data-name="Layer 2"><path class="cls-12" d="m3.84 174c-2.82 3.21 106 195 111 195s202-57 206-61.2-122-190-128-190-186 53-189 56.5z"/><path class="cls-11" d="m323 285c1.93 10.2-8.67 22.2-8.67 22.2s-195 56.4-196 56.5-109-185-109-187c-0.52-2.22 3.52-17.2 7.15-19.6s307 128 307 128z"/><line class="cls-3" x1="312" x2="162" y1="299" y2="343"/><line class="cls-3" x1="294" x2="131" y1="308" y2="356"/><path class="cls-3" d="M16.97,185.96c.09.07.19.14.28.21l71.49,123.59"/><line class="cls-3" x1="39.6" x2="112" y1="214" y2="341"/><path class="cls-12" d="m330 288c-3.85 4.19-201 61.4-206 61.2-1.82-0.04-18-26.4-37.4-59.8-4.87-8.36-9.95-17.1-15.1-26.1-2.38-4.12-4.74-8.27-7.09-12.4-3.33-5.83-6.63-11.6-9.87-17.4-23.2-41.1-42.9-77.7-41.6-79.1 1.61-1.83 50.7-16.9 98.5-31 7.48-2.21 14.9-4.39 22.2-6.49 2.19-0.65 4.37-1.27 6.52-1.89 25.3-7.35 47-13.5 56.8-16 2.99-0.75 4.84-1.17 5.31-1.16 5.26 0.05 131 186 128 190z"/><path class="cls-8" d="m191 133c-5.07-1.3-116 34.3-118 37.8s21.6 41 25.3 43.5 116-33.6 119-38.4-21.4-41.8-25.5-42.9z"/><g class="cls-9"><path class="cls-11" d="m111 124-56.8 110c3.23 5.74 6.53 11.6 9.87 17.4 17.1-33.3 52.7-102 69.1-134-7.23 2.1-14.7 4.29-22.2 6.49z"/><path class="cls-11" d="m140 115-68.6 148c5.11 8.92 10.2 17.7 15.1 26.1 31-52.8 85.9-148 110-190-9.72 2.48-31.5 8.63-56.8 16z"/></g><path class="cls-5" d="m165 108c7.45 0.42 133 186 134 191 0.93 4.14-3.34 18.2-3.34 18.2 5.51 0.26 12.2-3.35 12.6-4.08s4.26-14.3 3.6-18.2-95.4-141-135-190c-4.67-0.39-12.6 3.55-12.6 3.55z"/><path class="cls-2" d="m312 295c-3.48 1.29-7.04 2.4-10.6 3.32"/><line class="cls-2" x1="244" x2="304" y1="198" y2="285"/><line class="cls-1" x1="33.3" x2="138" y1="152" y2="336"/><ellipse class="cls-6" transform="translate(-23.4 5.62) rotate(-8.21)" cx="27.5" cy="166" rx="4.91" ry="2.47"/><path class="cls-6" d="m43.3 184c0.2 1.35-1.82 2.76-4.5 3.15s-5.02-0.4-5.21-1.75c-0.2-1.35 1.82-2.76 4.5-3.15s5.02 0.4 5.21 1.75z"/><path class="cls-6" d="m53.5 203c0.2 1.35-1.82 2.76-4.5 3.15s-5.02-0.4-5.21-1.75 1.82-2.76 4.5-3.15 5.02 0.4 5.21 1.75z"/><path class="cls-6" d="m64.3 222c0.2 1.35-1.82 2.76-4.5 3.15s-5.02-0.4-5.21-1.75c-0.2-1.35 1.82-2.76 4.5-3.15s5.02 0.4 5.21 1.75z"/><ellipse class="cls-6" transform="translate(-33.7 12.5) rotate(-8.21)" cx="70.1" cy="241" rx="4.91" ry="2.47"/><path class="cls-6" d="m86.1 259c0.2 1.35-1.82 2.76-4.5 3.15s-5.02-0.4-5.21-1.75c-0.2-1.35 1.82-2.76 4.5-3.15s5.02 0.4 5.21 1.75z"/><path class="cls-6" d="m96.5 278c0.2 1.35-1.82 2.76-4.5 3.15s-5.02-0.4-5.21-1.75c-0.2-1.35 1.82-2.76 4.5-3.15s5.02 0.4 5.21 1.75z"/><path class="cls-6" d="m108 297c0.2 1.35-1.82 2.76-4.5 3.15s-5.02-0.4-5.21-1.75c-0.2-1.35 1.82-2.76 4.5-3.15s5.02 0.4 5.21 1.75z"/><path class="cls-6" d="m118 316c0.2 1.35-1.82 2.76-4.5 3.15s-5.02-0.4-5.21-1.75c-0.2-1.35 1.82-2.76 4.5-3.15s5.02 0.4 5.21 1.75z"/><path class="cls-6" d="m129 335c0.2 1.35-1.82 2.76-4.5 3.15s-5.02-0.4-5.21-1.75 1.82-2.76 4.5-3.15 5.02 0.4 5.21 1.75z"/><path class="cls-5" d="M26.79,166.96c-4.18-1.74-9-2.21-13.35-.76-3.67,1.23-6.91,3.63-8.91,6.97-.25.42-.48.86-.69,1.31,0,0,0,0,0,.01,0,.02-.02.04-.03.06-1.33,2.91-1.69,6.32-.83,9.39.94,3.35,3.33,6.4,6.52,7.88.84.39,1.72.67,2.63.85.02,0,.04,0,.06.01.87.16,1.77.23,2.65.19-.41.79-.73,1.62-.98,2.48-.11,0-.22,0-.33-.02-.73-.03-1.46-.13-2.17-.29-1.37-.29-2.7-.79-3.95-1.51-3.67-2.1-6.24-5.88-7.09-10.01-.91-4.38.23-9.07,2.76-12.72,2.56-3.7,6.55-6.22,10.87-7.35,4.55-1.19,9.48-.62,13.8,1.17,1.49.62.55,2.94-.94,2.32Z"/><path class="cls-5" d="M37.57,185.81c-4.19-1.74-9.01-2.21-13.35-.76-3.68,1.23-6.91,3.63-8.92,6.97-.17.28-.33.56-.46.85-.41.79-.73,1.62-.98,2.48-.04.13-.08.27-.12.4-.6,2.31-.63,4.76.01,7.03.94,3.35,3.33,6.4,6.52,7.88.58.27,1.18.49,1.8.65.29.08.59.15.89.21.88.17,1.77.24,2.65.2-.4.79-.73,1.62-.97,2.48-.34,0-.69-.03-1.03-.07-.49-.05-.99-.13-1.47-.23-1.37-.29-2.7-.8-3.95-1.51-3.67-2.11-6.24-5.88-7.1-10.01-.5-2.42-.38-4.94.27-7.33.21-.79.48-1.57.81-2.32,0-.02.01-.03.02-.05.45-1.06,1.01-2.07,1.66-3.02,2.56-3.7,6.54-6.22,10.87-7.35,4.55-1.19,9.49-.62,13.8,1.18,1.49.62.55,2.94-.94,2.32Z"/><path class="cls-5" d="M48.35,204.65c-4.19-1.74-9.01-2.21-13.35-.76-3.68,1.22-6.91,3.63-8.92,6.97-.17.28-.33.56-.46.85h0c-.4.79-.73,1.62-.97,2.48-.13.41-.23.84-.31,1.27-.4,2.04-.36,4.18.2,6.17.94,3.35,3.33,6.41,6.52,7.88.41.19.84.36,1.28.5.46.15.93.27,1.4.36.87.17,1.77.24,2.65.2-.4.79-.73,1.62-.98,2.48-.49,0-.98-.05-1.47-.12-.34-.05-.69-.11-1.04-.18-1.37-.29-2.7-.79-3.95-1.51-3.67-2.11-6.24-5.89-7.1-10.01-.5-2.42-.37-4.94.27-7.33.14-.53.3-1.05.5-1.56.1-.28.21-.55.32-.82.45-1.06,1.02-2.07,1.67-3.01,2.56-3.7,6.54-6.22,10.86-7.35,4.56-1.19,9.49-.62,13.81,1.18,1.49.62.55,2.94-.94,2.32Z"/><path class="cls-5" d="M59.12,223.5c-4.19-1.74-9.01-2.21-13.35-.76-3.68,1.22-6.91,3.63-8.92,6.97-.17.28-.33.56-.47.85-.4.79-.73,1.62-.98,2.48-.17.59-.31,1.19-.4,1.8-.3,1.88-.22,3.82.3,5.64.94,3.35,3.33,6.41,6.51,7.88.32.14.64.28.96.39.56.2,1.14.36,1.73.46.88.17,1.77.24,2.65.2-.4.79-.73,1.62-.98,2.48-.58-.01-1.15-.07-1.72-.16-.26-.04-.52-.08-.78-.14-1.37-.29-2.7-.8-3.95-1.51-3.67-2.11-6.24-5.89-7.1-10.01-.5-2.42-.38-4.94.27-7.33.1-.36.2-.73.33-1.08.14-.44.31-.87.5-1.29.45-1.06,1.02-2.07,1.67-3.01,2.56-3.7,6.54-6.22,10.86-7.35,4.56-1.19,9.49-.62,13.81,1.18,1.49.62.55,2.94-.94,2.32Z"/><path class="cls-5" d="M69.9,242.35c-4.19-1.74-9.01-2.21-13.35-.76-3.68,1.22-6.91,3.63-8.92,6.97-.17.28-.33.56-.47.85-.4.79-.73,1.62-.98,2.48-.2.69-.35,1.4-.45,2.11-.24,1.78-.14,3.6.34,5.32.94,3.35,3.33,6.4,6.52,7.88.27.12.53.24.8.33h0c.61.23,1.24.4,1.88.52.88.17,1.77.24,2.65.2-.4.79-.73,1.62-.98,2.48-.62-.02-1.23-.08-1.84-.18-.22-.03-.44-.07-.66-.13-1.37-.29-2.7-.79-3.95-1.51-3.68-2.11-6.24-5.89-7.1-10.01-.5-2.42-.37-4.94.27-7.33.07-.27.15-.54.24-.81.16-.53.36-1.06.58-1.57.45-1.06,1.02-2.07,1.67-3.01,2.56-3.7,6.54-6.22,10.86-7.35,4.56-1.19,9.49-.62,13.81,1.17,1.49.63.55,2.95-.94,2.33Z"/><path class="cls-5" d="M80.67,261.2c-4.18-1.75-9-2.21-13.35-.76-3.68,1.22-6.91,3.63-8.92,6.97-.17.28-.33.56-.47.85-.4.79-.73,1.62-.98,2.48-.22.73-.37,1.49-.46,2.24-.22,1.74-.11,3.51.36,5.19.94,3.35,3.33,6.4,6.51,7.87.26.12.52.23.79.33.61.23,1.25.41,1.91.53.87.16,1.76.24,2.65.2-.4.79-.73,1.62-.98,2.48-.61-.02-1.22-.07-1.82-.18h0c-.22-.04-.44-.08-.67-.12-1.37-.29-2.7-.8-3.95-1.51-3.67-2.11-6.24-5.89-7.1-10.01-.5-2.42-.37-4.94.27-7.33.06-.23.13-.45.2-.68.18-.57.38-1.14.63-1.7.45-1.06,1.02-2.07,1.67-3.01,2.56-3.7,6.54-6.22,10.86-7.35,4.56-1.19,9.49-.62,13.81,1.17,1.49.63.55,2.95-.95,2.33Z"/><path class="cls-5" d="M91.45,280.04c-4.18-1.75-9-2.21-13.35-.76-3.68,1.22-6.91,3.63-8.91,6.97-.17.28-.33.56-.47.85h0c-.4.79-.73,1.62-.98,2.48-.21.72-.36,1.46-.45,2.21-.22,1.75-.12,3.54.35,5.23.94,3.35,3.33,6.4,6.51,7.87.31.15.63.27.95.39.57.2,1.15.36,1.74.47.87.16,1.77.23,2.65.19-.4.79-.73,1.63-.98,2.49-.56-.02-1.12-.07-1.67-.16-.28-.04-.55-.09-.82-.15-1.37-.29-2.7-.79-3.95-1.51-3.67-2.11-6.24-5.89-7.1-10.01-.5-2.42-.37-4.94.27-7.33.06-.24.12-.46.2-.69h0c.17-.58.38-1.14.62-1.69.45-1.06,1.01-2.07,1.66-3.01,2.56-3.7,6.55-6.22,10.87-7.35,4.55-1.19,9.49-.62,13.8,1.17,1.5.62.55,2.95-.94,2.33Z"/><path class="cls-5" d="M102.22,298.89c-4.18-1.74-9-2.21-13.35-.76-3.68,1.22-6.91,3.63-8.91,6.97-.17.28-.32.56-.47.85-.4.79-.73,1.63-.98,2.49-.19.65-.33,1.31-.42,1.98h0c-.27,1.83-.18,3.69.32,5.45.94,3.35,3.33,6.4,6.51,7.87.42.19.85.36,1.29.5.46.15.93.27,1.4.36.87.17,1.77.23,2.65.19-.4.79-.73,1.63-.98,2.49-.45-.01-.89-.05-1.34-.11h0c-.39-.05-.77-.11-1.15-.2-1.37-.29-2.7-.79-3.95-1.51-3.67-2.11-6.24-5.89-7.09-10.01-.5-2.42-.38-4.94.27-7.33.07-.28.15-.56.25-.84.16-.52.35-1.03.58-1.54.45-1.06,1.01-2.07,1.66-3.01,2.56-3.7,6.55-6.22,10.87-7.35,4.55-1.19,9.49-.62,13.8,1.17,1.49.62.55,2.95-.94,2.32Z"/><path class="cls-5" d="M113,317.73c-4.18-1.74-9-2.21-13.35-.76-3.68,1.22-6.91,3.63-8.91,6.97-.17.28-.32.56-.47.85-.4.79-.73,1.63-.98,2.49-.15.51-.27,1.02-.36,1.54h0c-.34,1.96-.28,3.99.26,5.89.94,3.35,3.33,6.4,6.51,7.87.61.28,1.25.51,1.9.68h0c.26.07.52.13.79.18.87.17,1.77.23,2.65.19-.4.79-.73,1.62-.98,2.48-.25,0-.5-.02-.75-.04-.59-.05-1.18-.13-1.76-.26-1.37-.29-2.7-.79-3.95-1.51-3.67-2.11-6.24-5.89-7.09-10.01-.5-2.42-.38-4.94.27-7.33.1-.39.22-.78.35-1.16.14-.41.3-.82.47-1.22.45-1.06,1.01-2.07,1.66-3.01,2.56-3.7,6.55-6.22,10.87-7.35,4.55-1.19,9.48-.62,13.8,1.17,1.49.62.55,2.95-.94,2.32Z"/><path class="cls-5" d="M123.78,336.58c-4.19-1.74-9-2.2-13.35-.76-3.68,1.22-6.91,3.63-8.92,6.97-.17.28-.32.56-.46.85-.4.79-.73,1.62-.98,2.48-.08.28-.15.55-.21.83-.5,2.18-.5,4.47.11,6.61.94,3.35,3.33,6.4,6.51,7.87.99.45,2.05.77,3.12.93.01,0,.02,0,.03,0,.62.93,1.26,1.89,1.75,2.61t-.01,0c-2.41.02-4.83-.58-6.98-1.81-3.67-2.11-6.24-5.89-7.1-10.01-.5-2.42-.37-4.94.27-7.33.15-.58.34-1.15.56-1.71.08-.22.17-.44.27-.66.45-1.06,1.01-2.07,1.66-3.01,2.56-3.7,6.54-6.23,10.87-7.35,4.55-1.19,9.48-.62,13.8,1.17,1.49.62.55,2.95-.94,2.32Z"/><path class="cls-7" d="m79.1 14.2c-3.93 1.67 11.6 221 15.9 224s207 35.9 212 33.8-28.1-224-32.8-227c-4.73-2.32-191-32.7-195-30.9z"/><path class="cls-11" d="m319 252c-2.69 10.1-17.4 16.3-17.4 16.3s-200-33.3-201-34-18-214-17.5-216 10.6-14 15-14.6 221 249 221 249z"/><line class="cls-3" x1="303" x2="149" y1="260" y2="235"/><line class="cls-3" x1="283" x2="115" y1="260" y2="233"/><path class="cls-3" d="M85.94,30.22c.05.1.11.21.16.31l10.99,142.36"/><line class="cls-3" x1="94.3" x2="104" y1="65.1" y2="211"/><path class="cls-13" d="m324 257c-5.29 2.12-208-31.6-212-33.8-1.62-0.82-4.76-31.6-7.89-70.1-0.78-9.64-1.56-19.8-2.31-30-0.36-4.75-0.7-9.51-1.03-14.3-0.02-0.26-0.04-0.52-0.05-0.77-0.47-6.45-0.91-12.9-1.32-19.2-0.62-9.36-1.19-18.5-1.69-27.2-0.2-3.47-0.4-6.84-0.58-10.1-0.44-8.01-0.81-15.4-1.09-22-0.76-17.9-0.88-29.6 0.02-30 0.89-0.38 9.29 0.58 22.1 2.37 4.97 0.69 10.6 1.51 16.8 2.42 2 0.31 4.06 0.61 6.17 0.93 13.2 1.99 28.4 4.34 43.7 6.79 4.45 0.71 8.93 1.43 13.4 2.15 7.69 1.24 15.4 2.5 22.8 3.73 2.26 0.37 4.49 0.74 6.7 1.11 26 4.31 48.2 8.18 58.1 10.2 3.02 0.61 4.87 1.04 5.29 1.25 4.72 2.32 38.1 224 32.8 227z"/><path class="cls-14" d="m265 57.7c-4-3.36-120-19.3-123-17.2s1.77 46.4 4.01 50.2 119 19.9 124 16.7-1.2-46.9-4.46-49.7z"/><g class="cls-9"><path class="cls-11" d="m118 2.45-22.2 27.6c0.28 6.59 0.65 14 1.09 22 12.4-15.5 27-33.7 37.8-47.2-6.14-0.91-11.8-1.72-16.8-2.42z"/><path class="cls-11" d="m141 5.79-43.4 56.4c0.5 8.64 1.07 17.8 1.69 27.2 0.41 6.32 0.85 12.7 1.32 19.2l84.2-96c-15.4-2.46-30.5-4.8-43.7-6.79z"/></g><path class="cls-5" d="m254 24c6.53 3.6 39.6 226 38.7 230s-10.9 14.9-10.9 14.9c4.85 2.62 12.5 2.26 13.1 1.75s10-11.1 11.1-14.8-24.8-169-39.2-230c-4.04-2.37-12.9-2.24-12.9-2.24z"/><path class="cls-2" d="m305 256c-3.7-0.34-7.38-0.88-11-1.61"/><line class="cls-2" x1="285" x2="302" y1="139" y2="244"/><line class="cls-1" x1="115" x2="130" y1="6.94" y2="218"/><path class="cls-12" d="m109 18.2c-0.41 1.3-2.84 1.7-5.42 0.89-2.59-0.81-4.35-2.53-3.94-3.83s2.84-1.7 5.42-0.89c2.59 0.81 4.35 2.53 3.94 3.83z"/><path class="cls-12" d="m111 39.8c-0.41 1.3-2.84 1.7-5.42 0.89-2.59-0.81-4.35-2.53-3.94-3.83s2.84-1.7 5.42-0.89c2.59 0.81 4.35 2.53 3.94 3.83z"/><path class="cls-12" d="m112 61.3c-0.41 1.3-2.84 1.7-5.42 0.89-2.59-0.81-4.35-2.53-3.94-3.83s2.84-1.7 5.42-0.89c2.59 0.81 4.35 2.53 3.94 3.83z"/><path class="cls-12" d="m113 83c-0.41 1.3-2.84 1.7-5.42 0.89-2.59-0.81-4.35-2.53-3.94-3.83s2.84-1.7 5.42-0.89c2.59 0.81 4.35 2.53 3.94 3.83z"/><path class="cls-12" d="m115 104c-0.41 1.3-2.84 1.7-5.42 0.89-2.59-0.81-4.35-2.53-3.94-3.83s2.84-1.7 5.42-0.89c2.59 0.81 4.35 2.53 3.94 3.83z"/><path class="cls-12" d="m117 126c-0.41 1.3-2.84 1.7-5.42 0.89-2.59-0.81-4.35-2.53-3.94-3.83s2.84-1.7 5.42-0.89c2.59 0.81 4.35 2.53 3.94 3.83z"/><path class="cls-12" d="m118 148c-0.41 1.3-2.84 1.7-5.42 0.89-2.59-0.81-4.35-2.53-3.94-3.83s2.84-1.7 5.42-0.89c2.59 0.81 4.35 2.53 3.94 3.83z"/><path class="cls-12" d="m119 170c-0.41 1.3-2.84 1.7-5.42 0.89-2.59-0.81-4.35-2.53-3.94-3.83s2.84-1.7 5.42-0.89c2.59 0.81 4.35 2.53 3.94 3.83z"/><path class="cls-12" d="m121 191c-0.41 1.3-2.84 1.7-5.42 0.89-2.59-0.81-4.35-2.53-3.94-3.83s2.84-1.7 5.42-0.89c2.59 0.81 4.35 2.53 3.94 3.83z"/><path class="cls-12" d="m122 213c-0.41 1.3-2.84 1.7-5.42 0.89-2.59-0.81-4.35-2.53-3.94-3.83s2.84-1.7 5.42-0.89c2.59 0.81 4.35 2.53 3.94 3.83z"/><path class="cls-4" d="M103.01,17.34c-3.02-3.38-7.16-5.89-11.71-6.46-3.84-.48-7.8.28-11.05,2.43-.41.27-.81.56-1.19.88,0,0,0,0-.01,0-.01.01-.04.03-.05.04-2.46,2.05-4.26,4.96-4.81,8.11-.6,3.43.23,7.22,2.47,9.92.59.71,1.26,1.35,2.01,1.9.02.01.04.02.05.04.72.53,1.49.97,2.31,1.32-.71.53-1.36,1.15-1.96,1.81-.1-.05-.2-.1-.3-.16-.64-.34-1.26-.75-1.83-1.2-1.11-.85-2.09-1.89-2.91-3.07-2.4-3.48-3.08-8-2.06-12.09,1.07-4.34,4.14-8.08,7.99-10.28,3.91-2.23,8.6-2.78,12.98-1.92,4.62.9,8.82,3.54,11.94,7.03,1.07,1.2-.78,2.89-1.86,1.69Z"/><path class="cls-4" d="M104.57,38.99c-3.02-3.38-7.16-5.89-11.71-6.46-3.85-.48-7.8.28-11.06,2.43-.27.18-.54.37-.79.57-.71.53-1.36,1.15-1.96,1.81-.1.1-.19.2-.28.31-1.54,1.82-2.63,4.02-3.03,6.34-.6,3.43.23,7.22,2.47,9.92.41.49.85.95,1.34,1.36.23.2.46.39.71.57.72.53,1.49.98,2.31,1.33-.71.54-1.36,1.15-1.95,1.82-.31-.16-.61-.32-.9-.51-.42-.26-.83-.54-1.23-.85-1.11-.86-2.09-1.89-2.91-3.07-2.4-3.49-3.08-8-2.07-12.09.59-2.4,1.8-4.62,3.41-6.49.53-.62,1.11-1.2,1.73-1.74,0-.01.02-.03.04-.04.86-.76,1.81-1.43,2.8-2,3.91-2.23,8.59-2.78,12.98-1.93,4.62.9,8.82,3.55,11.93,7.03,1.07,1.2-.78,2.89-1.86,1.69Z"/><path class="cls-4" d="M106.14,60.65c-3.02-3.38-7.16-5.89-11.71-6.46-3.85-.49-7.8.28-11.06,2.43-.27.18-.54.37-.79.57h0c-.71.53-1.36,1.15-1.95,1.81-.29.32-.57.66-.83,1.01-1.25,1.67-2.13,3.61-2.49,5.65-.6,3.43.23,7.21,2.47,9.92.29.35.61.69.94,1,.35.33.72.64,1.11.93.71.53,1.49.98,2.31,1.33-.71.54-1.36,1.15-1.96,1.81-.44-.22-.86-.47-1.27-.74-.29-.19-.58-.4-.85-.61-1.11-.85-2.09-1.89-2.91-3.07-2.4-3.49-3.08-8.01-2.07-12.09.59-2.4,1.8-4.62,3.41-6.49.35-.42.73-.81,1.12-1.19.21-.21.42-.41.65-.6.87-.76,1.81-1.43,2.81-2,3.91-2.23,8.59-2.78,12.97-1.93,4.62.9,8.82,3.55,11.94,7.04,1.07,1.2-.78,2.89-1.86,1.69Z"/><path class="cls-4" d="M107.7,82.3c-3.02-3.38-7.16-5.89-11.71-6.46-3.85-.49-7.8.28-11.06,2.43-.27.18-.54.37-.79.57-.71.54-1.36,1.15-1.96,1.81-.41.46-.79.94-1.13,1.45-1.08,1.57-1.85,3.35-2.17,5.21-.6,3.43.23,7.21,2.46,9.92.22.27.45.53.7.77.42.42.87.82,1.36,1.17.72.53,1.49.98,2.31,1.33-.71.54-1.36,1.15-1.96,1.81-.52-.26-1.01-.56-1.49-.89-.22-.15-.43-.3-.64-.46-1.11-.86-2.09-1.89-2.91-3.07-2.4-3.49-3.08-8.01-2.07-12.09.59-2.4,1.8-4.62,3.41-6.49.24-.29.5-.57.77-.83.32-.33.65-.65,1.01-.95.87-.76,1.81-1.43,2.81-2,3.91-2.23,8.59-2.78,12.97-1.93,4.62.9,8.82,3.55,11.94,7.04,1.07,1.2-.78,2.89-1.86,1.69Z"/><path class="cls-4" d="M109.26,103.96c-3.02-3.38-7.16-5.89-11.71-6.46-3.85-.49-7.8.28-11.06,2.43-.27.18-.54.37-.79.57-.71.54-1.36,1.15-1.96,1.81-.48.53-.92,1.11-1.32,1.71-.99,1.5-1.69,3.19-2,4.94-.6,3.43.23,7.22,2.47,9.92.19.22.38.44.58.65h0c.45.47.95.9,1.47,1.29.72.53,1.49.98,2.31,1.33-.71.54-1.36,1.15-1.96,1.81-.55-.28-1.08-.6-1.59-.96-.19-.12-.36-.26-.54-.4-1.11-.85-2.09-1.89-2.91-3.07-2.4-3.49-3.08-8.01-2.07-12.09.59-2.4,1.8-4.62,3.41-6.49.18-.22.37-.43.57-.63.37-.41.78-.8,1.2-1.16.87-.76,1.81-1.43,2.81-2,3.91-2.23,8.59-2.78,12.97-1.93,4.62.9,8.82,3.55,11.94,7.03,1.07,1.21-.78,2.9-1.86,1.69Z"/><path class="cls-4" d="M110.82,125.61c-3.02-3.39-7.16-5.89-11.7-6.46-3.85-.49-7.8.28-11.06,2.43-.27.18-.54.37-.79.57-.71.54-1.36,1.15-1.96,1.81-.51.57-.98,1.18-1.39,1.82-.95,1.47-1.62,3.12-1.92,4.83-.6,3.43.24,7.21,2.47,9.92.18.22.37.43.57.63.45.48.95.91,1.49,1.31.72.53,1.49.98,2.3,1.33-.71.54-1.36,1.15-1.96,1.81-.54-.28-1.06-.59-1.57-.95h0c-.18-.13-.37-.26-.55-.4-1.11-.86-2.09-1.89-2.91-3.07-2.4-3.49-3.08-8.01-2.07-12.09.59-2.4,1.8-4.62,3.41-6.49.15-.18.31-.35.47-.53.41-.44.84-.87,1.3-1.26.87-.76,1.81-1.43,2.81-2,3.91-2.23,8.59-2.78,12.97-1.93,4.62.9,8.83,3.54,11.94,7.03,1.07,1.21-.78,2.9-1.86,1.69Z"/><path class="cls-4" d="M112.38,147.26c-3.02-3.39-7.16-5.89-11.71-6.46-3.84-.49-7.8.28-11.05,2.43-.27.18-.54.37-.79.57h0c-.71.54-1.36,1.15-1.96,1.81-.5.56-.96,1.16-1.36,1.79-.96,1.48-1.64,3.14-1.94,4.87-.6,3.43.24,7.21,2.47,9.92.22.27.45.52.69.76.42.43.88.82,1.37,1.18.72.53,1.49.97,2.31,1.32-.71.54-1.36,1.15-1.96,1.82-.49-.26-.98-.54-1.44-.86-.23-.15-.46-.32-.68-.49-1.11-.85-2.09-1.89-2.91-3.07-2.4-3.49-3.08-8.01-2.07-12.09.59-2.4,1.8-4.62,3.41-6.49.15-.19.31-.36.48-.53h0c.4-.45.83-.86,1.29-1.26.86-.76,1.81-1.43,2.8-2,3.91-2.23,8.6-2.78,12.98-1.93,4.62.9,8.83,3.54,11.94,7.03,1.08,1.21-.78,2.9-1.86,1.69Z"/><path class="cls-4" d="M113.95,168.91c-3.02-3.38-7.16-5.88-11.71-6.46-3.84-.49-7.8.28-11.05,2.43-.27.18-.53.36-.79.56-.71.54-1.36,1.15-1.96,1.82-.45.5-.87,1.04-1.24,1.6h0c-1.03,1.53-1.75,3.25-2.07,5.06-.6,3.43.24,7.21,2.47,9.92.29.36.6.69.94,1.01.35.33.72.64,1.11.93.71.52,1.49.97,2.31,1.32-.71.54-1.36,1.15-1.96,1.82-.4-.21-.78-.43-1.16-.68h0c-.33-.21-.65-.44-.95-.68-1.11-.85-2.09-1.89-2.91-3.07-2.4-3.49-3.08-8.01-2.06-12.09.59-2.4,1.8-4.62,3.41-6.49.19-.23.38-.44.59-.65.37-.4.77-.78,1.18-1.14.86-.76,1.81-1.43,2.8-2,3.91-2.23,8.6-2.78,12.98-1.93,4.62.9,8.83,3.54,11.94,7.03,1.07,1.2-.78,2.9-1.86,1.69Z"/><path class="cls-4" d="M115.51,190.57c-3.02-3.38-7.16-5.88-11.71-6.46-3.84-.49-7.8.28-11.05,2.43-.27.18-.53.36-.79.56-.71.54-1.36,1.15-1.96,1.82-.35.39-.69.8-.99,1.23h0c-1.15,1.62-1.97,3.48-2.31,5.42-.6,3.43.24,7.21,2.47,9.92.43.52.9,1,1.42,1.44h0c.21.18.41.34.63.5.71.52,1.49.97,2.31,1.32-.71.54-1.36,1.15-1.96,1.81-.22-.11-.44-.23-.65-.36-.51-.3-1-.63-1.47-.99-1.11-.86-2.09-1.89-2.91-3.07-2.4-3.49-3.08-8.01-2.06-12.09.59-2.4,1.8-4.62,3.41-6.49.26-.31.53-.61.82-.89.31-.31.62-.61.95-.89.86-.76,1.81-1.43,2.8-2,3.91-2.23,8.6-2.78,12.98-1.93,4.62.9,8.82,3.54,11.94,7.03,1.07,1.2-.78,2.9-1.86,1.69Z"/><path class="cls-4" d="M117.07,212.22c-3.02-3.38-7.17-5.88-11.71-6.46-3.85-.49-7.8.28-11.06,2.43-.27.18-.53.36-.79.56-.71.54-1.36,1.15-1.96,1.81-.19.21-.38.43-.55.65-1.39,1.75-2.38,3.82-2.76,6.01-.6,3.43.24,7.21,2.47,9.92.69.84,1.51,1.58,2.42,2.19,0,0,.01,0,.02.02.16,1.11.32,2.25.46,3.11h0c-2.18-1.03-4.1-2.61-5.51-4.66-2.4-3.49-3.08-8.01-2.07-12.09.59-2.4,1.8-4.62,3.41-6.49.39-.46.81-.89,1.24-1.3.17-.17.35-.32.53-.48.86-.76,1.81-1.43,2.8-2,3.91-2.23,8.59-2.78,12.98-1.93,4.62.9,8.82,3.54,11.94,7.03,1.07,1.2-.78,2.9-1.86,1.69Z"/><path class="cls-6" d="m223 44.6c-4.27 0.15-68.3 211-65 215s180 107 186 107 53.9-219 50.3-223c-3.59-3.86-166-98.7-171-98.6z"/><path class="cls-11" d="m362 353c-6.12 8.44-22.1 8.97-22.1 8.97s-175-103-176-104c-1.22-1.19 59.7-206 61-208 1.25-1.9 14.9-9.29 19.2-8.31 4.25 0.98 118 311 118 311z"/><line class="cls-3" x1="344" x2="209" y1="354" y2="276"/><line class="cls-3" x1="325" x2="179" y1="347" y2="261"/><path class="cls-3" d="M223.75,61.99c.01.12.03.23.04.35l-40.62,136.88"/><line class="cls-3" x1="219" x2="176" y1="97.5" y2="238"/><path class="cls-8" d="m364 359c-5.69 0.09-183-104-186-107-1.22-1.35 6.85-31.2 17.7-68.3 2.72-9.28 5.6-19 8.57-28.9 1.36-4.56 2.74-9.13 4.14-13.7 1.95-6.43 3.9-12.8 5.85-19.1 13.9-45.1 27-84.5 28.8-84.6 2.44-0.08 47.1 25.2 90.2 50.2 6.74 3.91 13.4 7.82 19.9 11.6 1.98 1.15 3.93 2.3 5.86 3.43 22.7 13.3 42.1 24.9 50.6 30.2 2.6 1.65 4.18 2.72 4.5 3.06 3.58 3.85-44.6 223-50.3 223z"/><path class="cls-12" d="m381 152c-2.54-4.57-105-60.8-109-60s-14.9 43.9-14.2 48.3c0.71 4.38 104 61.1 109 59.7s15.7-44.3 13.6-48z"/><g class="cls-9"><path class="cls-11" d="m334 87.5-119 34.4c-1.95 6.29-3.91 12.7-5.85 19.1 35.9-10.4 110-32 145-41.9-6.5-3.8-13.2-7.71-19.9-11.6z"/><path class="cls-11" d="m360 103-155 52.1c-2.97 9.85-5.85 19.6-8.57 28.9 59.7-13.8 166-39.3 214-50.8-8.49-5.35-27.9-16.9-50.6-30.2z"/></g><path class="cls-5" d="m383 116c4.82 5.69-43.7 225-46 229-2.37 3.53-15.5 10-15.5 10 3.6 4.18 10.8 6.57 11.6 6.32s13.4-6.76 15.7-9.87 37.1-166 45.5-228c-2.93-3.66-11.2-6.69-11.2-6.69z"/><path class="cls-2" d="m347 351c-3.33-1.64-6.58-3.46-9.72-5.45"/><line class="cls-2" x1="371" x2="349" y1="235" y2="339"/><line class="cls-1" x1="259" x2="198" y1="50.7" y2="253"/><path class="cls-6" d="M249.33,58.94c-.85,1.07-3.26.58-5.38-1.11-2.12-1.68-3.16-3.91-2.31-4.99.85-1.07,3.26-.58,5.38,1.11,2.12,1.68,3.16,3.91,2.31,4.99Z"/><path class="cls-6" d="M243.29,79.7c-.85,1.07-3.26.58-5.38-1.11-2.12-1.68-3.16-3.91-2.31-4.99.85-1.07,3.26-.58,5.38,1.11,2.12,1.68,3.16,3.91,2.31,4.99Z"/><path class="cls-6" d="m237 100c-0.85 1.07-3.26 0.58-5.38-1.11-2.12-1.68-3.16-3.91-2.31-4.99 0.85-1.07 3.26-0.58 5.38 1.11 2.12 1.68 3.16 3.91 2.31 4.99z"/><path class="cls-6" d="m230 121c-0.85 1.07-3.26 0.58-5.38-1.11-2.12-1.68-3.16-3.91-2.31-4.99 0.85-1.07 3.26-0.58 5.38 1.11 2.12 1.68 3.16 3.91 2.31 4.99z"/><path class="cls-6" d="m224 142c-0.85 1.07-3.26 0.58-5.38-1.11-2.12-1.68-3.16-3.91-2.31-4.99 0.85-1.07 3.26-0.58 5.38 1.11 2.12 1.68 3.16 3.91 2.31 4.99z"/><path class="cls-6" d="m218 163c-0.85 1.07-3.26 0.58-5.38-1.11-2.12-1.68-3.16-3.91-2.31-4.99 0.85-1.07 3.26-0.58 5.38 1.11 2.12 1.68 3.16 3.91 2.31 4.99z"/><path class="cls-6" d="m212 183c-0.85 1.07-3.26 0.58-5.38-1.11-2.12-1.68-3.16-3.91-2.31-4.99 0.85-1.07 3.26-0.58 5.38 1.11 2.12 1.68 3.16 3.91 2.31 4.99z"/><path class="cls-6" d="m205 204c-0.85 1.07-3.26 0.58-5.38-1.11-2.12-1.68-3.16-3.91-2.31-4.99 0.85-1.07 3.26-0.58 5.38 1.11 2.12 1.68 3.16 3.91 2.31 4.99z"/><path class="cls-6" d="m199 225c-0.85 1.07-3.26 0.58-5.38-1.11-2.12-1.68-3.16-3.91-2.31-4.99 0.85-1.07 3.26-0.58 5.38 1.11 2.12 1.68 3.16 3.91 2.31 4.99z"/><path class="cls-6" d="m193 246c-0.85 1.07-3.26 0.58-5.38-1.11-2.12-1.68-3.16-3.91-2.31-4.99 0.85-1.07 3.26-0.58 5.38 1.11 2.12 1.68 3.16 3.91 2.31 4.99z"/><path class="cls-5" d="M244.3,56.06c-1.61-4.24-4.58-8.06-8.62-10.22-3.42-1.83-7.39-2.53-11.19-1.68-.48.11-.96.24-1.42.4,0,0,0,0-.01,0-.02,0-.04.01-.06.02-3.03,1.03-5.75,3.11-7.39,5.85-1.79,2.99-2.36,6.82-1.24,10.15.3.87.7,1.71,1.19,2.49.01.02.03.03.03.05.48.75,1.05,1.44,1.68,2.06-.85.24-1.68.58-2.48,1-.08-.08-.15-.16-.22-.25-.48-.55-.91-1.15-1.28-1.78-.73-1.19-1.28-2.51-1.62-3.9-1-4.11-.01-8.58,2.39-12.03,2.55-3.67,6.75-6.06,11.13-6.74,4.45-.68,9.02.48,12.81,2.84,3.99,2.49,6.97,6.46,8.64,10.83.57,1.51-1.76,2.42-2.34.91Z"/><path class="cls-5" d="M238.02,76.84c-1.61-4.24-4.59-8.06-8.62-10.22-3.42-1.83-7.39-2.53-11.19-1.68-.32.07-.63.15-.94.25-.85.24-1.68.58-2.48,1-.13.06-.25.12-.37.19-2.09,1.15-3.89,2.81-5.1,4.84-1.79,2.99-2.36,6.82-1.24,10.15.2.6.46,1.19.77,1.75.14.27.29.53.46.78.48.75,1.04,1.45,1.68,2.06-.85.25-1.68.59-2.47,1-.23-.26-.46-.52-.66-.8-.3-.39-.58-.8-.84-1.23-.73-1.2-1.28-2.51-1.62-3.91-.99-4.11-.01-8.58,2.39-12.04,1.41-2.03,3.33-3.67,5.51-4.84.72-.39,1.47-.73,2.24-1.01.01,0,.03-.01.05-.02,1.08-.4,2.2-.69,3.34-.87,4.45-.68,9.02.47,12.81,2.84,3.99,2.49,6.97,6.46,8.63,10.84.57,1.51-1.76,2.42-2.34.91Z"/><path class="cls-5" d="M231.74,97.62c-1.61-4.24-4.59-8.06-8.62-10.22-3.42-1.83-7.39-2.53-11.19-1.68-.32.07-.63.15-.94.25h0c-.85.24-1.68.58-2.47,1-.39.19-.76.41-1.13.65-1.76,1.11-3.28,2.61-4.34,4.39-1.79,2.99-2.36,6.82-1.24,10.15.14.43.32.86.52,1.27.21.44.44.86.71,1.27.47.75,1.04,1.45,1.68,2.06-.85.25-1.68.58-2.48,1-.33-.36-.64-.74-.92-1.15-.2-.28-.4-.58-.58-.88-.73-1.19-1.28-2.51-1.62-3.9-.99-4.11-.02-8.58,2.39-12.04,1.41-2.03,3.33-3.67,5.51-4.84.48-.26.97-.5,1.47-.71.27-.12.54-.23.82-.33,1.08-.4,2.2-.68,3.34-.86,4.45-.68,9.02.47,12.81,2.83,3.99,2.5,6.97,6.47,8.64,10.84.57,1.51-1.76,2.42-2.34.91Z"/><path class="cls-5" d="M225.46,118.41c-1.61-4.24-4.59-8.06-8.62-10.22-3.42-1.83-7.39-2.53-11.19-1.68-.32.07-.63.15-.94.25-.85.25-1.68.58-2.48,1-.55.28-1.08.59-1.58.95-1.57,1.08-2.92,2.47-3.89,4.09-1.79,2.99-2.36,6.82-1.25,10.15.11.33.24.65.38.97.24.55.52,1.07.85,1.57.48.75,1.04,1.45,1.68,2.06-.85.25-1.68.58-2.48,1-.39-.43-.74-.88-1.07-1.36-.15-.21-.3-.43-.43-.66-.73-1.2-1.28-2.51-1.62-3.91-.99-4.11-.02-8.58,2.39-12.04,1.41-2.03,3.33-3.67,5.51-4.84.33-.18.67-.35,1.01-.51.42-.2.84-.37,1.28-.53,1.08-.4,2.2-.68,3.34-.86,4.45-.68,9.02.47,12.81,2.83,3.99,2.5,6.97,6.47,8.64,10.84.57,1.51-1.76,2.42-2.34.91Z"/><path class="cls-5" d="M219.18,139.19c-1.61-4.24-4.59-8.06-8.62-10.22-3.42-1.83-7.39-2.53-11.19-1.68-.32.07-.63.15-.94.25-.85.25-1.68.58-2.48,1-.64.33-1.26.7-1.84,1.13-1.46,1.05-2.71,2.37-3.63,3.9-1.79,2.99-2.36,6.82-1.24,10.15.1.28.19.55.31.81h0c.25.6.56,1.18.92,1.73.48.75,1.04,1.45,1.68,2.06-.85.25-1.68.58-2.48,1-.41-.46-.79-.95-1.14-1.46-.13-.18-.25-.37-.36-.57-.73-1.19-1.28-2.51-1.62-3.9-1-4.12-.02-8.58,2.39-12.04,1.41-2.03,3.33-3.67,5.51-4.84.24-.14.5-.27.76-.38.5-.25,1.01-.46,1.54-.66,1.08-.4,2.2-.68,3.34-.86,4.45-.68,9.02.47,12.81,2.83,4,2.49,6.97,6.47,8.64,10.83.57,1.51-1.77,2.42-2.34.92Z"/><path class="cls-5" d="M212.9,159.97c-1.61-4.24-4.58-8.06-8.62-10.22-3.42-1.83-7.39-2.53-11.19-1.68-.32.07-.63.15-.94.25-.85.25-1.68.58-2.48,1-.68.35-1.33.75-1.95,1.21-1.41,1.04-2.63,2.33-3.52,3.83-1.79,2.99-2.36,6.82-1.24,10.14.09.27.19.53.3.79.25.61.56,1.19.92,1.75.48.75,1.04,1.44,1.68,2.06-.85.25-1.68.59-2.48,1-.41-.46-.78-.93-1.12-1.44h0c-.13-.19-.25-.38-.37-.57-.73-1.2-1.28-2.51-1.62-3.91-1-4.12-.02-8.58,2.39-12.04,1.41-2.03,3.33-3.67,5.51-4.84.21-.12.41-.22.63-.32.54-.27,1.1-.51,1.66-.71,1.08-.4,2.2-.68,3.34-.86,4.44-.68,9.02.47,12.81,2.83,4,2.49,6.98,6.46,8.64,10.83.57,1.51-1.77,2.42-2.34.91Z"/><path class="cls-5" d="M206.62,180.75c-1.61-4.24-4.58-8.06-8.62-10.22-3.41-1.83-7.39-2.53-11.19-1.68-.32.07-.63.15-.94.25h0c-.85.25-1.68.58-2.48.99-.67.35-1.31.74-1.91,1.19-1.42,1.04-2.65,2.35-3.55,3.85-1.79,2.99-2.36,6.82-1.24,10.14.11.33.23.64.37.95.24.55.53,1.09.86,1.59.48.75,1.05,1.44,1.68,2.06-.85.25-1.69.59-2.48,1-.37-.42-.72-.86-1.04-1.32-.16-.23-.31-.46-.46-.7-.73-1.19-1.28-2.51-1.62-3.9-1-4.12-.02-8.58,2.39-12.04,1.41-2.03,3.33-3.67,5.51-4.84.21-.12.42-.23.64-.33h0c.53-.27,1.08-.51,1.65-.71,1.08-.4,2.2-.69,3.33-.86,4.45-.68,9.02.48,12.81,2.84,3.99,2.49,6.98,6.46,8.64,10.83.57,1.52-1.76,2.43-2.34.92Z"/><path class="cls-5" d="M200.34,201.53c-1.61-4.24-4.59-8.05-8.63-10.22-3.41-1.83-7.39-2.53-11.19-1.68-.32.07-.63.15-.94.24-.85.25-1.69.59-2.48,1-.6.31-1.18.66-1.73,1.05h0c-1.51,1.07-2.8,2.41-3.74,3.98-1.79,2.99-2.36,6.82-1.24,10.14.15.44.32.86.52,1.28.21.44.44.86.71,1.27.48.74,1.05,1.44,1.68,2.06-.85.25-1.69.59-2.48,1-.3-.33-.57-.68-.84-1.05h0c-.23-.32-.45-.64-.65-.98-.73-1.2-1.28-2.51-1.62-3.91-.99-4.11-.01-8.58,2.39-12.03,1.41-2.03,3.33-3.67,5.51-4.84.25-.15.51-.28.78-.4.49-.24.99-.45,1.51-.64,1.08-.4,2.2-.69,3.33-.86,4.45-.68,9.02.48,12.81,2.84,3.99,2.49,6.98,6.46,8.64,10.83.57,1.51-1.76,2.43-2.34.91Z"/><path class="cls-5" d="M194.06,222.31c-1.61-4.24-4.59-8.05-8.63-10.22-3.41-1.83-7.39-2.53-11.19-1.68-.32.07-.63.15-.94.24-.85.25-1.69.59-2.48,1-.47.24-.93.51-1.37.8h0c-1.66,1.1-3.09,2.54-4.1,4.24-1.79,2.99-2.36,6.82-1.24,10.14.22.64.49,1.26.81,1.85h0c.13.24.26.47.41.7.48.74,1.05,1.44,1.68,2.06-.85.25-1.68.58-2.48,1-.17-.18-.33-.37-.48-.57-.37-.46-.71-.94-1.02-1.46-.73-1.2-1.28-2.51-1.62-3.9-.99-4.11-.01-8.58,2.39-12.03,1.41-2.03,3.33-3.67,5.51-4.84.35-.2.71-.38,1.08-.54.4-.18.8-.35,1.21-.49,1.08-.4,2.2-.69,3.33-.86,4.45-.69,9.02.48,12.81,2.84,3.99,2.49,6.97,6.46,8.64,10.83.57,1.51-1.76,2.43-2.34.91Z"/><path class="cls-5" d="M187.78,243.1c-1.61-4.24-4.59-8.06-8.63-10.22-3.42-1.83-7.39-2.53-11.19-1.68-.32.07-.63.15-.94.25-.85.25-1.68.58-2.48,1-.26.13-.51.27-.75.41-1.93,1.14-3.59,2.71-4.73,4.62-1.79,2.99-2.36,6.82-1.24,10.14.35,1.03.85,2.02,1.47,2.91,0,.01,0,.01.01.02-.25,1.09-.51,2.21-.69,3.07t0,0c-1.67-1.74-2.9-3.9-3.48-6.32-.99-4.11-.01-8.58,2.39-12.04,1.41-2.03,3.33-3.67,5.51-4.84.53-.29,1.07-.55,1.63-.77.22-.09.44-.18.67-.26,1.08-.4,2.2-.69,3.33-.86,4.45-.69,9.02.47,12.81,2.84,3.99,2.49,6.97,6.46,8.64,10.83.57,1.51-1.76,2.43-2.34.91Z"/></g></g></svg>
