<?xml version="1.0" encoding="UTF-8"?>
<svg xmlns="http://www.w3.org/2000/svg" viewBox="0 0 414.95 369.22">
  <defs>
    <style>
      .cls-1 {
        stroke-width: .75px;
      }

      .cls-1, .cls-2 {
        stroke: #332621;
      }

      .cls-1, .cls-2, .cls-3 {
        fill: none;
        stroke-linecap: round;
        stroke-linejoin: round;
      }

      .cls-4 {
        fill: #332621;
      }

      .cls-2 {
        stroke-width: .25px;
      }

      .cls-5 {
        fill: #ff5e5c;
      }

      .cls-6 {
        fill: #2a2a6a;
      }

      .cls-7 {
        fill: #54633a;
      }

      .cls-8 {
        fill: #716ec7;
      }

      .cls-9 {
        mix-blend-mode: soft-light;
        opacity: .5;
      }

      .cls-10 {
        isolation: isolate;
      }

      .cls-11 {
        fill: #fff;
      }

      .cls-12 {
        fill: #ffc947;
      }

      .cls-3 {
        stroke: #f9e7d7;
        stroke-width: .5px;
      }

      .cls-13 {
        fill: #788e55;
      }

      .cls-14 {
        fill: #4545a1;
      }
    </style>
  </defs>
  <g class="cls-10">
    <g id="Layer_2" data-name="Layer 2">
      <g id="OBJECTS">
        <g>
          <g>
            <g>
              <path class="cls-12" d="M3.84,174.47c-2.82,3.21,106.24,194.63,111.11,194.74s201.83-57.04,205.68-61.24c3.85-4.2-122.28-189.99-127.55-190.04-5.27-.05-186.1,52.98-189.23,56.54Z"/>
              <path class="cls-11" d="M323.09,285.18c1.93,10.25-8.67,22.21-8.67,22.21,0,0-194.59,56.4-196.29,56.47-1.7.07-108.86-185.27-109.39-187.49-.52-2.22,3.52-17.24,7.15-19.65,3.63-2.41,307.2,128.47,307.2,128.47Z"/>
              <g>
                <line class="cls-3" x1="311.89" y1="299.25" x2="162.21" y2="343.19"/>
                <line class="cls-3" x1="293.81" y1="308.25" x2="130.9" y2="355.76"/>
                <path class="cls-3" d="M16.97,185.96c.09.07.19.14.28.21l71.49,123.59"/>
                <line class="cls-3" x1="39.61" y1="213.75" x2="111.7" y2="341.48"/>
              </g>
              <path class="cls-12" d="M329.5,288.08c-3.85,4.19-200.81,61.35-205.68,61.24-1.82-.04-17.97-26.44-37.45-59.8-4.87-8.36-9.95-17.14-15.07-26.06-2.38-4.12-4.74-8.27-7.09-12.41-3.33-5.83-6.63-11.65-9.87-17.4-23.15-41.1-42.86-77.68-41.64-79.08,1.61-1.83,50.7-16.89,98.48-31,7.48-2.21,14.93-4.39,22.15-6.49,2.19-.65,4.37-1.27,6.52-1.89,25.28-7.35,47.04-13.5,56.77-15.98,2.99-.75,4.84-1.17,5.31-1.16,5.26.05,131.4,185.85,127.55,190.04Z"/>
              <path class="cls-8" d="M190.55,133.18c-5.07-1.3-116.13,34.27-118.44,37.77-2.31,3.5,21.65,41.02,25.32,43.52,3.67,2.5,115.85-33.56,118.63-38.43,2.78-4.87-21.39-41.8-25.51-42.86Z"/>
              <g class="cls-9">
                <path class="cls-11" d="M111.19,123.57l-56.85,110.07c3.23,5.74,6.53,11.56,9.87,17.4,17.11-33.28,52.73-102.23,69.13-133.96-7.23,2.1-14.68,4.29-22.15,6.49Z"/>
                <path class="cls-11" d="M139.86,115.19l-68.56,148.27c5.11,8.92,10.19,17.71,15.07,26.06,31.05-52.81,85.89-147.96,110.26-190.32-9.72,2.48-31.49,8.63-56.77,15.98Z"/>
              </g>
              <g>
                <path class="cls-5" d="M165.42,107.82c7.45.42,133.42,186.42,134.35,190.57.93,4.14-3.34,18.15-3.34,18.15,5.51.26,12.21-3.35,12.56-4.08.35-.73,4.26-14.34,3.6-18.16-.66-3.82-95.36-141.34-134.61-190.03-4.67-.39-12.57,3.55-12.57,3.55Z"/>
                <path class="cls-2" d="M311.79,294.64c-3.48,1.29-7.04,2.4-10.64,3.32"/>
                <line class="cls-2" x1="243.82" y1="198.2" x2="303.81" y2="285.19"/>
              </g>
              <line class="cls-1" x1="33.27" y1="152.32" x2="138.23" y2="336.11"/>
            </g>
            <g>
              <ellipse class="cls-6" cx="27.49" cy="165.99" rx="4.91" ry="2.47" transform="translate(-23.42 5.62) rotate(-8.21)"/>
              <path class="cls-6" d="M43.26,183.95c.2,1.35-1.82,2.76-4.5,3.15-2.68.39-5.02-.4-5.21-1.75-.2-1.35,1.82-2.76,4.5-3.15,2.68-.39,5.02.4,5.21,1.75Z"/>
              <path class="cls-6" d="M53.51,202.89c.2,1.35-1.82,2.76-4.5,3.15-2.68.39-5.02-.4-5.21-1.75s1.82-2.76,4.5-3.15,5.02.4,5.21,1.75Z"/>
              <path class="cls-6" d="M64.28,221.75c.2,1.35-1.82,2.76-4.5,3.15-2.68.39-5.02-.4-5.21-1.75-.2-1.35,1.82-2.76,4.5-3.15,2.68-.39,5.02.4,5.21,1.75Z"/>
              <ellipse class="cls-6" cx="70.11" cy="241.1" rx="4.91" ry="2.47" transform="translate(-33.7 12.48) rotate(-8.21)"/>
              <path class="cls-6" d="M86.14,259.25c.2,1.35-1.82,2.76-4.5,3.15-2.68.39-5.02-.4-5.21-1.75-.2-1.35,1.82-2.76,4.5-3.15,2.68-.39,5.02.4,5.21,1.75Z"/>
              <path class="cls-6" d="M96.46,278.05c.2,1.35-1.82,2.76-4.5,3.15-2.68.39-5.02-.4-5.21-1.75-.2-1.35,1.82-2.76,4.5-3.15s5.02.4,5.21,1.75Z"/>
              <path class="cls-6" d="M107.51,297.36c.2,1.35-1.82,2.76-4.5,3.15-2.68.39-5.02-.4-5.21-1.75-.2-1.35,1.82-2.76,4.5-3.15,2.68-.39,5.02.4,5.21,1.75Z"/>
              <path class="cls-6" d="M118.03,316.28c.2,1.35-1.82,2.76-4.5,3.15-2.68.39-5.02-.4-5.21-1.75-.2-1.35,1.82-2.76,4.5-3.15s5.02.4,5.21,1.75Z"/>
              <path class="cls-6" d="M128.95,334.95c.2,1.35-1.82,2.76-4.5,3.15-2.68.39-5.02-.4-5.21-1.75s1.82-2.76,4.5-3.15,5.02.4,5.21,1.75Z"/>
              <path class="cls-5" d="M26.79,166.96c-4.18-1.74-9-2.21-13.35-.76-3.67,1.23-6.91,3.63-8.91,6.97-.25.42-.48.86-.69,1.31,0,0,0,0,0,.01,0,.02-.02.04-.03.06-1.33,2.91-1.69,6.32-.83,9.39.94,3.35,3.33,6.4,6.52,7.88.84.39,1.72.67,2.63.85.02,0,.04,0,.06.01.87.16,1.77.23,2.65.19-.41.79-.73,1.62-.98,2.48-.11,0-.22,0-.33-.02-.73-.03-1.46-.13-2.17-.29-1.37-.29-2.7-.79-3.95-1.51-3.67-2.1-6.24-5.88-7.09-10.01-.91-4.38.23-9.07,2.76-12.72,2.56-3.7,6.55-6.22,10.87-7.35,4.55-1.19,9.48-.62,13.8,1.17,1.49.62.55,2.94-.94,2.32Z"/>
              <path class="cls-5" d="M37.57,185.81c-4.19-1.74-9.01-2.21-13.35-.76-3.68,1.23-6.91,3.63-8.92,6.97-.17.28-.33.56-.46.85-.41.79-.73,1.62-.98,2.48-.04.13-.08.27-.12.4-.6,2.31-.63,4.76.01,7.03.94,3.35,3.33,6.4,6.52,7.88.58.27,1.18.49,1.8.65.29.08.59.15.89.21.88.17,1.77.24,2.65.2-.4.79-.73,1.62-.97,2.48-.34,0-.69-.03-1.03-.07-.49-.05-.99-.13-1.47-.23-1.37-.29-2.7-.8-3.95-1.51-3.67-2.11-6.24-5.88-7.1-10.01-.5-2.42-.38-4.94.27-7.33.21-.79.48-1.57.81-2.32,0-.02.01-.03.02-.05.45-1.06,1.01-2.07,1.66-3.02,2.56-3.7,6.54-6.22,10.87-7.35,4.55-1.19,9.49-.62,13.8,1.18,1.49.62.55,2.94-.94,2.32Z"/>
              <path class="cls-5" d="M48.35,204.65c-4.19-1.74-9.01-2.21-13.35-.76-3.68,1.22-6.91,3.63-8.92,6.97-.17.28-.33.56-.46.85h0c-.4.79-.73,1.62-.97,2.48-.13.41-.23.84-.31,1.27-.4,2.04-.36,4.18.2,6.17.94,3.35,3.33,6.41,6.52,7.88.41.19.84.36,1.28.5.46.15.93.27,1.4.36.87.17,1.77.24,2.65.2-.4.79-.73,1.62-.98,2.48-.49,0-.98-.05-1.47-.12-.34-.05-.69-.11-1.04-.18-1.37-.29-2.7-.79-3.95-1.51-3.67-2.11-6.24-5.89-7.1-10.01-.5-2.42-.37-4.94.27-7.33.14-.53.3-1.05.5-1.56.1-.28.21-.55.32-.82.45-1.06,1.02-2.07,1.67-3.01,2.56-3.7,6.54-6.22,10.86-7.35,4.56-1.19,9.49-.62,13.81,1.18,1.49.62.55,2.94-.94,2.32Z"/>
              <path class="cls-5" d="M59.12,223.5c-4.19-1.74-9.01-2.21-13.35-.76-3.68,1.22-6.91,3.63-8.92,6.97-.17.28-.33.56-.47.85-.4.79-.73,1.62-.98,2.48-.17.59-.31,1.19-.4,1.8-.3,1.88-.22,3.82.3,5.64.94,3.35,3.33,6.41,6.51,7.88.32.14.64.28.96.39.56.2,1.14.36,1.73.46.88.17,1.77.24,2.65.2-.4.79-.73,1.62-.98,2.48-.58-.01-1.15-.07-1.72-.16-.26-.04-.52-.08-.78-.14-1.37-.29-2.7-.8-3.95-1.51-3.67-2.11-6.24-5.89-7.1-10.01-.5-2.42-.38-4.94.27-7.33.1-.36.2-.73.33-1.08.14-.44.31-.87.5-1.29.45-1.06,1.02-2.07,1.67-3.01,2.56-3.7,6.54-6.22,10.86-7.35,4.56-1.19,9.49-.62,13.81,1.18,1.49.62.55,2.94-.94,2.32Z"/>
              <path class="cls-5" d="M69.9,242.35c-4.19-1.74-9.01-2.21-13.35-.76-3.68,1.22-6.91,3.63-8.92,6.97-.17.28-.33.56-.47.85-.4.79-.73,1.62-.98,2.48-.2.69-.35,1.4-.45,2.11-.24,1.78-.14,3.6.34,5.32.94,3.35,3.33,6.4,6.52,7.88.27.12.53.24.8.33h0c.61.23,1.24.4,1.88.52.88.17,1.77.24,2.65.2-.4.79-.73,1.62-.98,2.48-.62-.02-1.23-.08-1.84-.18-.22-.03-.44-.07-.66-.13-1.37-.29-2.7-.79-3.95-1.51-3.68-2.11-6.24-5.89-7.1-10.01-.5-2.42-.37-4.94.27-7.33.07-.27.15-.54.24-.81.16-.53.36-1.06.58-1.57.45-1.06,1.02-2.07,1.67-3.01,2.56-3.7,6.54-6.22,10.86-7.35,4.56-1.19,9.49-.62,13.81,1.17,1.49.63.55,2.95-.94,2.33Z"/>
              <path class="cls-5" d="M80.67,261.2c-4.18-1.75-9-2.21-13.35-.76-3.68,1.22-6.91,3.63-8.92,6.97-.17.28-.33.56-.47.85-.4.79-.73,1.62-.98,2.48-.22.73-.37,1.49-.46,2.24-.22,1.74-.11,3.51.36,5.19.94,3.35,3.33,6.4,6.51,7.87.26.12.52.23.79.33.61.23,1.25.41,1.91.53.87.16,1.76.24,2.65.2-.4.79-.73,1.62-.98,2.48-.61-.02-1.22-.07-1.82-.18h0c-.22-.04-.44-.08-.67-.12-1.37-.29-2.7-.8-3.95-1.51-3.67-2.11-6.24-5.89-7.1-10.01-.5-2.42-.37-4.94.27-7.33.06-.23.13-.45.2-.68.18-.57.38-1.14.63-1.7.45-1.06,1.02-2.07,1.67-3.01,2.56-3.7,6.54-6.22,10.86-7.35,4.56-1.19,9.49-.62,13.81,1.17,1.49.63.55,2.95-.95,2.33Z"/>
              <path class="cls-5" d="M91.45,280.04c-4.18-1.75-9-2.21-13.35-.76-3.68,1.22-6.91,3.63-8.91,6.97-.17.28-.33.56-.47.85h0c-.4.79-.73,1.62-.98,2.48-.21.72-.36,1.46-.45,2.21-.22,1.75-.12,3.54.35,5.23.94,3.35,3.33,6.4,6.51,7.87.31.15.63.27.95.39.57.2,1.15.36,1.74.47.87.16,1.77.23,2.65.19-.4.79-.73,1.63-.98,2.49-.56-.02-1.12-.07-1.67-.16-.28-.04-.55-.09-.82-.15-1.37-.29-2.7-.79-3.95-1.51-3.67-2.11-6.24-5.89-7.1-10.01-.5-2.42-.37-4.94.27-7.33.06-.24.12-.46.2-.69h0c.17-.58.38-1.14.62-1.69.45-1.06,1.01-2.07,1.66-3.01,2.56-3.7,6.55-6.22,10.87-7.35,4.55-1.19,9.49-.62,13.8,1.17,1.5.62.55,2.95-.94,2.33Z"/>
              <path class="cls-5" d="M102.22,298.89c-4.18-1.74-9-2.21-13.35-.76-3.68,1.22-6.91,3.63-8.91,6.97-.17.28-.32.56-.47.85-.4.79-.73,1.63-.98,2.49-.19.65-.33,1.31-.42,1.98h0c-.27,1.83-.18,3.69.32,5.45.94,3.35,3.33,6.4,6.51,7.87.42.19.85.36,1.29.5.46.15.93.27,1.4.36.87.17,1.77.23,2.65.19-.4.79-.73,1.63-.98,2.49-.45-.01-.89-.05-1.34-.11h0c-.39-.05-.77-.11-1.15-.2-1.37-.29-2.7-.79-3.95-1.51-3.67-2.11-6.24-5.89-7.09-10.01-.5-2.42-.38-4.94.27-7.33.07-.28.15-.56.25-.84.16-.52.35-1.03.58-1.54.45-1.06,1.01-2.07,1.66-3.01,2.56-3.7,6.55-6.22,10.87-7.35,4.55-1.19,9.49-.62,13.8,1.17,1.49.62.55,2.95-.94,2.32Z"/>
              <path class="cls-5" d="M113,317.73c-4.18-1.74-9-2.21-13.35-.76-3.68,1.22-6.91,3.63-8.91,6.97-.17.28-.32.56-.47.85-.4.79-.73,1.63-.98,2.49-.15.51-.27,1.02-.36,1.54h0c-.34,1.96-.28,3.99.26,5.89.94,3.35,3.33,6.4,6.51,7.87.61.28,1.25.51,1.9.68h0c.26.07.52.13.79.18.87.17,1.77.23,2.65.19-.4.79-.73,1.62-.98,2.48-.25,0-.5-.02-.75-.04-.59-.05-1.18-.13-1.76-.26-1.37-.29-2.7-.79-3.95-1.51-3.67-2.11-6.24-5.89-7.09-10.01-.5-2.42-.38-4.94.27-7.33.1-.39.22-.78.35-1.16.14-.41.3-.82.47-1.22.45-1.06,1.01-2.07,1.66-3.01,2.56-3.7,6.55-6.22,10.87-7.35,4.55-1.19,9.48-.62,13.8,1.17,1.49.62.55,2.95-.94,2.32Z"/>
              <path class="cls-5" d="M123.78,336.58c-4.19-1.74-9-2.2-13.35-.76-3.68,1.22-6.91,3.63-8.92,6.97-.17.28-.32.56-.46.85-.4.79-.73,1.62-.98,2.48-.08.28-.15.55-.21.83-.5,2.18-.5,4.47.11,6.61.94,3.35,3.33,6.4,6.51,7.87.99.45,2.05.77,3.12.93.01,0,.02,0,.03,0,.62.93,1.26,1.89,1.75,2.61t-.01,0c-2.41.02-4.83-.58-6.98-1.81-3.67-2.11-6.24-5.89-7.1-10.01-.5-2.42-.37-4.94.27-7.33.15-.58.34-1.15.56-1.71.08-.22.17-.44.27-.66.45-1.06,1.01-2.07,1.66-3.01,2.56-3.7,6.54-6.23,10.87-7.35,4.55-1.19,9.48-.62,13.8,1.17,1.49.62.55,2.95-.94,2.32Z"/>
            </g>
          </g>
          <g>
            <g>
              <path class="cls-7" d="M79.06,14.18c-3.93,1.67,11.59,221.44,15.93,223.64s206.64,35.88,211.93,33.76-28.06-224.19-32.79-226.52c-4.73-2.32-190.71-32.74-195.07-30.89Z"/>
              <path class="cls-11" d="M319.01,252.1c-2.69,10.07-17.42,16.27-17.42,16.27,0,0-199.84-33.33-201.4-34.01-1.56-.68-18-214.13-17.51-216.36.49-2.23,10.63-14.02,14.95-14.62s221.39,248.72,221.39,248.72Z"/>
              <g>
                <line class="cls-3" x1="302.82" y1="259.93" x2="148.86" y2="234.81"/>
                <line class="cls-3" x1="282.63" y1="260.23" x2="115.2" y2="232.6"/>
                <path class="cls-3" d="M85.94,30.22c.05.1.11.21.16.31l10.99,142.36"/>
                <line class="cls-3" x1="94.33" y1="65.06" x2="104.06" y2="211.41"/>
              </g>
              <path class="cls-13" d="M323.53,257.49c-5.29,2.12-207.58-31.56-211.93-33.76-1.62-.82-4.76-31.61-7.89-70.11-.78-9.64-1.56-19.76-2.31-30.02-.36-4.75-.7-9.51-1.03-14.26-.02-.26-.04-.52-.05-.77-.47-6.45-.91-12.86-1.32-19.18-.62-9.36-1.19-18.5-1.69-27.15-.2-3.47-.4-6.84-.58-10.12-.44-8.01-.81-15.44-1.09-22.03-.76-17.9-.88-29.62.02-30,.89-.38,9.29.58,22.14,2.37,4.97.69,10.62,1.51,16.76,2.42,2,.31,4.06.61,6.17.93,13.25,1.99,28.35,4.34,43.74,6.79,4.45.71,8.93,1.43,13.39,2.15,7.69,1.24,15.36,2.5,22.78,3.73,2.26.37,4.49.74,6.7,1.11,25.97,4.31,48.25,8.18,58.09,10.15,3.02.61,4.87,1.04,5.29,1.25,4.72,2.32,38.07,224.4,32.79,226.52Z"/>
              <path class="cls-14" d="M265.26,57.72c-4-3.36-119.52-19.33-123.12-17.18-3.6,2.15,1.77,46.35,4.01,50.19s118.97,19.86,123.58,16.67c4.61-3.19-1.2-46.94-4.46-49.68Z"/>
              <g class="cls-9">
                <path class="cls-11" d="M117.81,2.45l-22.16,27.64c.28,6.59.65,14.02,1.09,22.03,12.42-15.5,26.97-33.69,37.83-47.25-6.14-.91-11.79-1.72-16.76-2.42Z"/>
                <path class="cls-11" d="M140.74,5.79l-43.43,56.45c.5,8.64,1.07,17.79,1.69,27.15.41,6.32.85,12.73,1.32,19.18L184.49,12.58c-15.39-2.46-30.49-4.8-43.74-6.79Z"/>
              </g>
              <g>
                <path class="cls-5" d="M253.58,23.99c6.53,3.6,39.65,225.79,38.7,229.93-.95,4.14-10.87,14.92-10.87,14.92,4.85,2.62,12.46,2.26,13.09,1.75.63-.51,10.05-11.09,11.11-14.81,1.06-3.72-24.84-168.68-39.16-229.56-4.04-2.37-12.87-2.24-12.87-2.24Z"/>
                <path class="cls-2" d="M304.73,255.74c-3.7-.34-7.38-.88-11.03-1.61"/>
                <line class="cls-2" x1="285.16" y1="139.39" x2="301.62" y2="243.77"/>
              </g>
              <line class="cls-1" x1="115.18" y1="6.94" x2="130.31" y2="218.05"/>
            </g>
            <g>
              <path class="cls-12" d="M108.74,18.23c-.41,1.3-2.84,1.7-5.42.89-2.59-.81-4.35-2.53-3.94-3.83.41-1.3,2.84-1.7,5.42-.89,2.59.81,4.35,2.53,3.94,3.83Z"/>
              <path class="cls-12" d="M110.51,39.78c-.41,1.3-2.84,1.7-5.42.89-2.59-.81-4.35-2.53-3.94-3.83.41-1.3,2.84-1.7,5.42-.89,2.59.81,4.35,2.53,3.94,3.83Z"/>
              <path class="cls-12" d="M111.55,61.29c-.41,1.3-2.84,1.7-5.42.89-2.59-.81-4.35-2.53-3.94-3.83.41-1.3,2.84-1.7,5.42-.89,2.59.81,4.35,2.53,3.94,3.83Z"/>
              <path class="cls-12" d="M113.1,82.95c-.41,1.3-2.84,1.7-5.42.89-2.59-.81-4.35-2.53-3.94-3.83.41-1.3,2.84-1.7,5.42-.89,2.59.81,4.35,2.53,3.94,3.83Z"/>
              <path class="cls-12" d="M114.68,104.39c-.41,1.3-2.84,1.7-5.42.89-2.59-.81-4.35-2.53-3.94-3.83.41-1.3,2.84-1.7,5.42-.89,2.59.81,4.35,2.53,3.94,3.83Z"/>
              <path class="cls-12" d="M116.6,126.22c-.41,1.3-2.84,1.7-5.42.89-2.59-.81-4.35-2.53-3.94-3.83.41-1.3,2.84-1.7,5.42-.89,2.59.81,4.35,2.53,3.94,3.83Z"/>
              <path class="cls-12" d="M117.76,147.63c-.41,1.3-2.84,1.7-5.42.89-2.59-.81-4.35-2.53-3.94-3.83.41-1.3,2.84-1.7,5.42-.89,2.59.81,4.35,2.53,3.94,3.83Z"/>
              <path class="cls-12" d="M119.37,169.82c-.41,1.3-2.84,1.7-5.42.89-2.59-.81-4.35-2.53-3.94-3.83.41-1.3,2.84-1.7,5.42-.89,2.59.81,4.35,2.53,3.94,3.83Z"/>
              <path class="cls-12" d="M120.67,191.43c-.41,1.3-2.84,1.7-5.42.89-2.59-.81-4.35-2.53-3.94-3.83.41-1.3,2.84-1.7,5.42-.89,2.59.81,4.35,2.53,3.94,3.83Z"/>
              <path class="cls-12" d="M122.44,212.98c-.41,1.3-2.84,1.7-5.42.89-2.59-.81-4.35-2.53-3.94-3.83.41-1.3,2.84-1.7,5.42-.89,2.59.81,4.35,2.53,3.94,3.83Z"/>
              <path class="cls-4" d="M103.01,17.34c-3.02-3.38-7.16-5.89-11.71-6.46-3.84-.48-7.8.28-11.05,2.43-.41.27-.81.56-1.19.88,0,0,0,0-.01,0-.01.01-.04.03-.05.04-2.46,2.05-4.26,4.96-4.81,8.11-.6,3.43.23,7.22,2.47,9.92.59.71,1.26,1.35,2.01,1.9.02.01.04.02.05.04.72.53,1.49.97,2.31,1.32-.71.53-1.36,1.15-1.96,1.81-.1-.05-.2-.1-.3-.16-.64-.34-1.26-.75-1.83-1.2-1.11-.85-2.09-1.89-2.91-3.07-2.4-3.48-3.08-8-2.06-12.09,1.07-4.34,4.14-8.08,7.99-10.28,3.91-2.23,8.6-2.78,12.98-1.92,4.62.9,8.82,3.54,11.94,7.03,1.07,1.2-.78,2.89-1.86,1.69Z"/>
              <path class="cls-4" d="M104.57,38.99c-3.02-3.38-7.16-5.89-11.71-6.46-3.85-.48-7.8.28-11.06,2.43-.27.18-.54.37-.79.57-.71.53-1.36,1.15-1.96,1.81-.1.1-.19.2-.28.31-1.54,1.82-2.63,4.02-3.03,6.34-.6,3.43.23,7.22,2.47,9.92.41.49.85.95,1.34,1.36.23.2.46.39.71.57.72.53,1.49.98,2.31,1.33-.71.54-1.36,1.15-1.95,1.82-.31-.16-.61-.32-.9-.51-.42-.26-.83-.54-1.23-.85-1.11-.86-2.09-1.89-2.91-3.07-2.4-3.49-3.08-8-2.07-12.09.59-2.4,1.8-4.62,3.41-6.49.53-.62,1.11-1.2,1.73-1.74,0-.01.02-.03.04-.04.86-.76,1.81-1.43,2.8-2,3.91-2.23,8.59-2.78,12.98-1.93,4.62.9,8.82,3.55,11.93,7.03,1.07,1.2-.78,2.89-1.86,1.69Z"/>
              <path class="cls-4" d="M106.14,60.65c-3.02-3.38-7.16-5.89-11.71-6.46-3.85-.49-7.8.28-11.06,2.43-.27.18-.54.37-.79.57h0c-.71.53-1.36,1.15-1.95,1.81-.29.32-.57.66-.83,1.01-1.25,1.67-2.13,3.61-2.49,5.65-.6,3.43.23,7.21,2.47,9.92.29.35.61.69.94,1,.35.33.72.64,1.11.93.71.53,1.49.98,2.31,1.33-.71.54-1.36,1.15-1.96,1.81-.44-.22-.86-.47-1.27-.74-.29-.19-.58-.4-.85-.61-1.11-.85-2.09-1.89-2.91-3.07-2.4-3.49-3.08-8.01-2.07-12.09.59-2.4,1.8-4.62,3.41-6.49.35-.42.73-.81,1.12-1.19.21-.21.42-.41.65-.6.87-.76,1.81-1.43,2.81-2,3.91-2.23,8.59-2.78,12.97-1.93,4.62.9,8.82,3.55,11.94,7.04,1.07,1.2-.78,2.89-1.86,1.69Z"/>
              <path class="cls-4" d="M107.7,82.3c-3.02-3.38-7.16-5.89-11.71-6.46-3.85-.49-7.8.28-11.06,2.43-.27.18-.54.37-.79.57-.71.54-1.36,1.15-1.96,1.81-.41.46-.79.94-1.13,1.45-1.08,1.57-1.85,3.35-2.17,5.21-.6,3.43.23,7.21,2.46,9.92.22.27.45.53.7.77.42.42.87.82,1.36,1.17.72.53,1.49.98,2.31,1.33-.71.54-1.36,1.15-1.96,1.81-.52-.26-1.01-.56-1.49-.89-.22-.15-.43-.3-.64-.46-1.11-.86-2.09-1.89-2.91-3.07-2.4-3.49-3.08-8.01-2.07-12.09.59-2.4,1.8-4.62,3.41-6.49.24-.29.5-.57.77-.83.32-.33.65-.65,1.01-.95.87-.76,1.81-1.43,2.81-2,3.91-2.23,8.59-2.78,12.97-1.93,4.62.9,8.82,3.55,11.94,7.04,1.07,1.2-.78,2.89-1.86,1.69Z"/>
              <path class="cls-4" d="M109.26,103.96c-3.02-3.38-7.16-5.89-11.71-6.46-3.85-.49-7.8.28-11.06,2.43-.27.18-.54.37-.79.57-.71.54-1.36,1.15-1.96,1.81-.48.53-.92,1.11-1.32,1.71-.99,1.5-1.69,3.19-2,4.94-.6,3.43.23,7.22,2.47,9.92.19.22.38.44.58.65h0c.45.47.95.9,1.47,1.29.72.53,1.49.98,2.31,1.33-.71.54-1.36,1.15-1.96,1.81-.55-.28-1.08-.6-1.59-.96-.19-.12-.36-.26-.54-.4-1.11-.85-2.09-1.89-2.91-3.07-2.4-3.49-3.08-8.01-2.07-12.09.59-2.4,1.8-4.62,3.41-6.49.18-.22.37-.43.57-.63.37-.41.78-.8,1.2-1.16.87-.76,1.81-1.43,2.81-2,3.91-2.23,8.59-2.78,12.97-1.93,4.62.9,8.82,3.55,11.94,7.03,1.07,1.21-.78,2.9-1.86,1.69Z"/>
              <path class="cls-4" d="M110.82,125.61c-3.02-3.39-7.16-5.89-11.7-6.46-3.85-.49-7.8.28-11.06,2.43-.27.18-.54.37-.79.57-.71.54-1.36,1.15-1.96,1.81-.51.57-.98,1.18-1.39,1.82-.95,1.47-1.62,3.12-1.92,4.83-.6,3.43.24,7.21,2.47,9.92.18.22.37.43.57.63.45.48.95.91,1.49,1.31.72.53,1.49.98,2.3,1.33-.71.54-1.36,1.15-1.96,1.81-.54-.28-1.06-.59-1.57-.95h0c-.18-.13-.37-.26-.55-.4-1.11-.86-2.09-1.89-2.91-3.07-2.4-3.49-3.08-8.01-2.07-12.09.59-2.4,1.8-4.62,3.41-6.49.15-.18.31-.35.47-.53.41-.44.84-.87,1.3-1.26.87-.76,1.81-1.43,2.81-2,3.91-2.23,8.59-2.78,12.97-1.93,4.62.9,8.83,3.54,11.94,7.03,1.07,1.21-.78,2.9-1.86,1.69Z"/>
              <path class="cls-4" d="M112.38,147.26c-3.02-3.39-7.16-5.89-11.71-6.46-3.84-.49-7.8.28-11.05,2.43-.27.18-.54.37-.79.57h0c-.71.54-1.36,1.15-1.96,1.81-.5.56-.96,1.16-1.36,1.79-.96,1.48-1.64,3.14-1.94,4.87-.6,3.43.24,7.21,2.47,9.92.22.27.45.52.69.76.42.43.88.82,1.37,1.18.72.53,1.49.97,2.31,1.32-.71.54-1.36,1.15-1.96,1.82-.49-.26-.98-.54-1.44-.86-.23-.15-.46-.32-.68-.49-1.11-.85-2.09-1.89-2.91-3.07-2.4-3.49-3.08-8.01-2.07-12.09.59-2.4,1.8-4.62,3.41-6.49.15-.19.31-.36.48-.53h0c.4-.45.83-.86,1.29-1.26.86-.76,1.81-1.43,2.8-2,3.91-2.23,8.6-2.78,12.98-1.93,4.62.9,8.83,3.54,11.94,7.03,1.08,1.21-.78,2.9-1.86,1.69Z"/>
              <path class="cls-4" d="M113.95,168.91c-3.02-3.38-7.16-5.88-11.71-6.46-3.84-.49-7.8.28-11.05,2.43-.27.18-.53.36-.79.56-.71.54-1.36,1.15-1.96,1.82-.45.5-.87,1.04-1.24,1.6h0c-1.03,1.53-1.75,3.25-2.07,5.06-.6,3.43.24,7.21,2.47,9.92.29.36.6.69.94,1.01.35.33.72.64,1.11.93.71.52,1.49.97,2.31,1.32-.71.54-1.36,1.15-1.96,1.82-.4-.21-.78-.43-1.16-.68h0c-.33-.21-.65-.44-.95-.68-1.11-.85-2.09-1.89-2.91-3.07-2.4-3.49-3.08-8.01-2.06-12.09.59-2.4,1.8-4.62,3.41-6.49.19-.23.38-.44.59-.65.37-.4.77-.78,1.18-1.14.86-.76,1.81-1.43,2.8-2,3.91-2.23,8.6-2.78,12.98-1.93,4.62.9,8.83,3.54,11.94,7.03,1.07,1.2-.78,2.9-1.86,1.69Z"/>
              <path class="cls-4" d="M115.51,190.57c-3.02-3.38-7.16-5.88-11.71-6.46-3.84-.49-7.8.28-11.05,2.43-.27.18-.53.36-.79.56-.71.54-1.36,1.15-1.96,1.82-.35.39-.69.8-.99,1.23h0c-1.15,1.62-1.97,3.48-2.31,5.42-.6,3.43.24,7.21,2.47,9.92.43.52.9,1,1.42,1.44h0c.21.18.41.34.63.5.71.52,1.49.97,2.31,1.32-.71.54-1.36,1.15-1.96,1.81-.22-.11-.44-.23-.65-.36-.51-.3-1-.63-1.47-.99-1.11-.86-2.09-1.89-2.91-3.07-2.4-3.49-3.08-8.01-2.06-12.09.59-2.4,1.8-4.62,3.41-6.49.26-.31.53-.61.82-.89.31-.31.62-.61.95-.89.86-.76,1.81-1.43,2.8-2,3.91-2.23,8.6-2.78,12.98-1.93,4.62.9,8.82,3.54,11.94,7.03,1.07,1.2-.78,2.9-1.86,1.69Z"/>
              <path class="cls-4" d="M117.07,212.22c-3.02-3.38-7.17-5.88-11.71-6.46-3.85-.49-7.8.28-11.06,2.43-.27.18-.53.36-.79.56-.71.54-1.36,1.15-1.96,1.81-.19.21-.38.43-.55.65-1.39,1.75-2.38,3.82-2.76,6.01-.6,3.43.24,7.21,2.47,9.92.69.84,1.51,1.58,2.42,2.19,0,0,.01,0,.02.02.16,1.11.32,2.25.46,3.11h0c-2.18-1.03-4.1-2.61-5.51-4.66-2.4-3.49-3.08-8.01-2.07-12.09.59-2.4,1.8-4.62,3.41-6.49.39-.46.81-.89,1.24-1.3.17-.17.35-.32.53-.48.86-.76,1.81-1.43,2.8-2,3.91-2.23,8.59-2.78,12.98-1.93,4.62.9,8.82,3.54,11.94,7.03,1.07,1.2-.78,2.9-1.86,1.69Z"/>
            </g>
          </g>
          <g>
            <g>
              <path class="cls-6" d="M223.06,44.55c-4.27.15-68.32,210.95-65.05,214.56,3.27,3.61,180.17,107.37,185.86,107.28,5.69-.09,53.92-219.41,50.34-223.28-3.59-3.86-166.41-98.74-171.14-98.57Z"/>
              <path class="cls-11" d="M362.12,352.52c-6.12,8.44-22.09,8.97-22.09,8.97,0,0-174.73-102.55-175.94-103.74-1.22-1.19,59.72-206.42,60.97-208.33,1.25-1.9,14.94-9.29,19.18-8.31,4.25.98,117.87,311.42,117.87,311.42Z"/>
              <g>
                <line class="cls-3" x1="344.21" y1="354.05" x2="209.4" y2="275.56"/>
                <line class="cls-3" x1="325.24" y1="347.11" x2="178.75" y2="261.46"/>
                <path class="cls-3" d="M223.75,61.99c.01.12.03.23.04.35l-40.62,136.88"/>
                <line class="cls-3" x1="219.14" y1="97.53" x2="175.92" y2="237.69"/>
              </g>
              <path class="cls-8" d="M364.42,359.16c-5.69.09-182.59-103.67-185.87-107.28-1.22-1.35,6.85-31.23,17.69-68.3,2.72-9.28,5.6-19.01,8.57-28.86,1.36-4.56,2.74-9.13,4.14-13.69,1.95-6.43,3.9-12.83,5.85-19.12,13.93-45.07,26.96-84.53,28.81-84.6,2.44-.08,47.12,25.21,90.21,50.21,6.74,3.91,13.45,7.82,19.94,11.62,1.98,1.15,3.93,2.3,5.86,3.43,22.72,13.3,42.14,24.89,50.63,30.24,2.6,1.65,4.18,2.72,4.5,3.06,3.58,3.85-44.65,223.18-50.34,223.28Z"/>
              <path class="cls-12" d="M381.4,151.77c-2.54-4.57-104.72-60.78-108.85-60.05-4.13.73-14.91,43.92-14.2,48.31.71,4.38,104.01,61.07,109.46,59.74s15.66-44.26,13.59-47.99Z"/>
              <g class="cls-9">
                <path class="cls-11" d="M333.83,87.53l-119.02,34.38c-1.95,6.29-3.91,12.69-5.85,19.12,35.94-10.45,110.5-31.98,144.82-41.88-6.5-3.8-13.2-7.71-19.94-11.62Z"/>
                <path class="cls-11" d="M359.63,102.59l-154.81,52.13c-2.97,9.85-5.85,19.58-8.57,28.86,59.7-13.75,166.5-39.34,214.02-50.75-8.49-5.35-27.91-16.94-50.63-30.24Z"/>
              </g>
              <g>
                <path class="cls-5" d="M382.55,116.09c4.82,5.69-43.68,225.05-46.04,228.58-2.37,3.53-15.48,10.05-15.48,10.05,3.6,4.18,10.83,6.57,11.6,6.32s13.35-6.76,15.67-9.87,37.09-166.42,45.48-228.39c-2.93-3.66-11.22-6.69-11.22-6.69Z"/>
                <path class="cls-2" d="M347.49,350.81c-3.33-1.64-6.58-3.46-9.72-5.45"/>
                <line class="cls-2" x1="370.8" y1="235.15" x2="348.86" y2="338.53"/>
              </g>
              <line class="cls-1" x1="259.39" y1="50.7" x2="198.06" y2="253.27"/>
            </g>
            <g>
              <path class="cls-6" d="M249.33,58.94c-.85,1.07-3.26.58-5.38-1.11-2.12-1.68-3.16-3.91-2.31-4.99.85-1.07,3.26-.58,5.38,1.11,2.12,1.68,3.16,3.91,2.31,4.99Z"/>
              <path class="cls-6" d="M243.29,79.7c-.85,1.07-3.26.58-5.38-1.11-2.12-1.68-3.16-3.91-2.31-4.99.85-1.07,3.26-.58,5.38,1.11,2.12,1.68,3.16,3.91,2.31,4.99Z"/>
              <path class="cls-6" d="M236.57,100.16c-.85,1.07-3.26.58-5.38-1.11-2.12-1.68-3.16-3.91-2.31-4.99.85-1.07,3.26-.58,5.38,1.11,2.12,1.68,3.16,3.91,2.31,4.99Z"/>
              <path class="cls-6" d="M230.28,120.95c-.85,1.07-3.26.58-5.38-1.11-2.12-1.68-3.16-3.91-2.31-4.99.85-1.07,3.26-.58,5.38,1.11,2.12,1.68,3.16,3.91,2.31,4.99Z"/>
              <path class="cls-6" d="M224.08,141.53c-.85,1.07-3.26.58-5.38-1.11-2.12-1.68-3.16-3.91-2.31-4.99.85-1.07,3.26-.58,5.38,1.11,2.12,1.68,3.16,3.91,2.31,4.99Z"/>
              <path class="cls-6" d="M218.07,162.61c-.85,1.07-3.26.58-5.38-1.11-2.12-1.68-3.16-3.91-2.31-4.99.85-1.07,3.26-.58,5.38,1.11,2.12,1.68,3.16,3.91,2.31,4.99Z"/>
              <path class="cls-6" d="M211.51,183.02c-.85,1.07-3.26.58-5.38-1.11-2.12-1.68-3.16-3.91-2.31-4.99.85-1.07,3.26-.58,5.38,1.11,2.12,1.68,3.16,3.91,2.31,4.99Z"/>
              <path class="cls-6" d="M205.08,204.32c-.85,1.07-3.26.58-5.38-1.11-2.12-1.68-3.16-3.91-2.31-4.99.85-1.07,3.26-.58,5.38,1.11,2.12,1.68,3.16,3.91,2.31,4.99Z"/>
              <path class="cls-6" d="M198.57,224.97c-.85,1.07-3.26.58-5.38-1.11-2.12-1.68-3.16-3.91-2.31-4.99.85-1.07,3.26-.58,5.38,1.11,2.12,1.68,3.16,3.91,2.31,4.99Z"/>
              <path class="cls-6" d="M192.52,245.73c-.85,1.07-3.26.58-5.38-1.11-2.12-1.68-3.16-3.91-2.31-4.99.85-1.07,3.26-.58,5.38,1.11,2.12,1.68,3.16,3.91,2.31,4.99Z"/>
              <path class="cls-5" d="M244.3,56.06c-1.61-4.24-4.58-8.06-8.62-10.22-3.42-1.83-7.39-2.53-11.19-1.68-.48.11-.96.24-1.42.4,0,0,0,0-.01,0-.02,0-.04.01-.06.02-3.03,1.03-5.75,3.11-7.39,5.85-1.79,2.99-2.36,6.82-1.24,10.15.3.87.7,1.71,1.19,2.49.01.02.03.03.03.05.48.75,1.05,1.44,1.68,2.06-.85.24-1.68.58-2.48,1-.08-.08-.15-.16-.22-.25-.48-.55-.91-1.15-1.28-1.78-.73-1.19-1.28-2.51-1.62-3.9-1-4.11-.01-8.58,2.39-12.03,2.55-3.67,6.75-6.06,11.13-6.74,4.45-.68,9.02.48,12.81,2.84,3.99,2.49,6.97,6.46,8.64,10.83.57,1.51-1.76,2.42-2.34.91Z"/>
              <path class="cls-5" d="M238.02,76.84c-1.61-4.24-4.59-8.06-8.62-10.22-3.42-1.83-7.39-2.53-11.19-1.68-.32.07-.63.15-.94.25-.85.24-1.68.58-2.48,1-.13.06-.25.12-.37.19-2.09,1.15-3.89,2.81-5.1,4.84-1.79,2.99-2.36,6.82-1.24,10.15.2.6.46,1.19.77,1.75.14.27.29.53.46.78.48.75,1.04,1.45,1.68,2.06-.85.25-1.68.59-2.47,1-.23-.26-.46-.52-.66-.8-.3-.39-.58-.8-.84-1.23-.73-1.2-1.28-2.51-1.62-3.91-.99-4.11-.01-8.58,2.39-12.04,1.41-2.03,3.33-3.67,5.51-4.84.72-.39,1.47-.73,2.24-1.01.01,0,.03-.01.05-.02,1.08-.4,2.2-.69,3.34-.87,4.45-.68,9.02.47,12.81,2.84,3.99,2.49,6.97,6.46,8.63,10.84.57,1.51-1.76,2.42-2.34.91Z"/>
              <path class="cls-5" d="M231.74,97.62c-1.61-4.24-4.59-8.06-8.62-10.22-3.42-1.83-7.39-2.53-11.19-1.68-.32.07-.63.15-.94.25h0c-.85.24-1.68.58-2.47,1-.39.19-.76.41-1.13.65-1.76,1.11-3.28,2.61-4.34,4.39-1.79,2.99-2.36,6.82-1.24,10.15.14.43.32.86.52,1.27.21.44.44.86.71,1.27.47.75,1.04,1.45,1.68,2.06-.85.25-1.68.58-2.48,1-.33-.36-.64-.74-.92-1.15-.2-.28-.4-.58-.58-.88-.73-1.19-1.28-2.51-1.62-3.9-.99-4.11-.02-8.58,2.39-12.04,1.41-2.03,3.33-3.67,5.51-4.84.48-.26.97-.5,1.47-.71.27-.12.54-.23.82-.33,1.08-.4,2.2-.68,3.34-.86,4.45-.68,9.02.47,12.81,2.83,3.99,2.5,6.97,6.47,8.64,10.84.57,1.51-1.76,2.42-2.34.91Z"/>
              <path class="cls-5" d="M225.46,118.41c-1.61-4.24-4.59-8.06-8.62-10.22-3.42-1.83-7.39-2.53-11.19-1.68-.32.07-.63.15-.94.25-.85.25-1.68.58-2.48,1-.55.28-1.08.59-1.58.95-1.57,1.08-2.92,2.47-3.89,4.09-1.79,2.99-2.36,6.82-1.25,10.15.11.33.24.65.38.97.24.55.52,1.07.85,1.57.48.75,1.04,1.45,1.68,2.06-.85.25-1.68.58-2.48,1-.39-.43-.74-.88-1.07-1.36-.15-.21-.3-.43-.43-.66-.73-1.2-1.28-2.51-1.62-3.91-.99-4.11-.02-8.58,2.39-12.04,1.41-2.03,3.33-3.67,5.51-4.84.33-.18.67-.35,1.01-.51.42-.2.84-.37,1.28-.53,1.08-.4,2.2-.68,3.34-.86,4.45-.68,9.02.47,12.81,2.83,3.99,2.5,6.97,6.47,8.64,10.84.57,1.51-1.76,2.42-2.34.91Z"/>
              <path class="cls-5" d="M219.18,139.19c-1.61-4.24-4.59-8.06-8.62-10.22-3.42-1.83-7.39-2.53-11.19-1.68-.32.07-.63.15-.94.25-.85.25-1.68.58-2.48,1-.64.33-1.26.7-1.84,1.13-1.46,1.05-2.71,2.37-3.63,3.9-1.79,2.99-2.36,6.82-1.24,10.15.1.28.19.55.31.81h0c.25.6.56,1.18.92,1.73.48.75,1.04,1.45,1.68,2.06-.85.25-1.68.58-2.48,1-.41-.46-.79-.95-1.14-1.46-.13-.18-.25-.37-.36-.57-.73-1.19-1.28-2.51-1.62-3.9-1-4.12-.02-8.58,2.39-12.04,1.41-2.03,3.33-3.67,5.51-4.84.24-.14.5-.27.76-.38.5-.25,1.01-.46,1.54-.66,1.08-.4,2.2-.68,3.34-.86,4.45-.68,9.02.47,12.81,2.83,4,2.49,6.97,6.47,8.64,10.83.57,1.51-1.77,2.42-2.34.92Z"/>
              <path class="cls-5" d="M212.9,159.97c-1.61-4.24-4.58-8.06-8.62-10.22-3.42-1.83-7.39-2.53-11.19-1.68-.32.07-.63.15-.94.25-.85.25-1.68.58-2.48,1-.68.35-1.33.75-1.95,1.21-1.41,1.04-2.63,2.33-3.52,3.83-1.79,2.99-2.36,6.82-1.24,10.14.09.27.19.53.3.79.25.61.56,1.19.92,1.75.48.75,1.04,1.44,1.68,2.06-.85.25-1.68.59-2.48,1-.41-.46-.78-.93-1.12-1.44h0c-.13-.19-.25-.38-.37-.57-.73-1.2-1.28-2.51-1.62-3.91-1-4.12-.02-8.58,2.39-12.04,1.41-2.03,3.33-3.67,5.51-4.84.21-.12.41-.22.63-.32.54-.27,1.1-.51,1.66-.71,1.08-.4,2.2-.68,3.34-.86,4.44-.68,9.02.47,12.81,2.83,4,2.49,6.98,6.46,8.64,10.83.57,1.51-1.77,2.42-2.34.91Z"/>
              <path class="cls-5" d="M206.62,180.75c-1.61-4.24-4.58-8.06-8.62-10.22-3.41-1.83-7.39-2.53-11.19-1.68-.32.07-.63.15-.94.25h0c-.85.25-1.68.58-2.48.99-.67.35-1.31.74-1.91,1.19-1.42,1.04-2.65,2.35-3.55,3.85-1.79,2.99-2.36,6.82-1.24,10.14.11.33.23.64.37.95.24.55.53,1.09.86,1.59.48.75,1.05,1.44,1.68,2.06-.85.25-1.69.59-2.48,1-.37-.42-.72-.86-1.04-1.32-.16-.23-.31-.46-.46-.7-.73-1.19-1.28-2.51-1.62-3.9-1-4.12-.02-8.58,2.39-12.04,1.41-2.03,3.33-3.67,5.51-4.84.21-.12.42-.23.64-.33h0c.53-.27,1.08-.51,1.65-.71,1.08-.4,2.2-.69,3.33-.86,4.45-.68,9.02.48,12.81,2.84,3.99,2.49,6.98,6.46,8.64,10.83.57,1.52-1.76,2.43-2.34.92Z"/>
              <path class="cls-5" d="M200.34,201.53c-1.61-4.24-4.59-8.05-8.63-10.22-3.41-1.83-7.39-2.53-11.19-1.68-.32.07-.63.15-.94.24-.85.25-1.69.59-2.48,1-.6.31-1.18.66-1.73,1.05h0c-1.51,1.07-2.8,2.41-3.74,3.98-1.79,2.99-2.36,6.82-1.24,10.14.15.44.32.86.52,1.28.21.44.44.86.71,1.27.48.74,1.05,1.44,1.68,2.06-.85.25-1.69.59-2.48,1-.3-.33-.57-.68-.84-1.05h0c-.23-.32-.45-.64-.65-.98-.73-1.2-1.28-2.51-1.62-3.91-.99-4.11-.01-8.58,2.39-12.03,1.41-2.03,3.33-3.67,5.51-4.84.25-.15.51-.28.78-.4.49-.24.99-.45,1.51-.64,1.08-.4,2.2-.69,3.33-.86,4.45-.68,9.02.48,12.81,2.84,3.99,2.49,6.98,6.46,8.64,10.83.57,1.51-1.76,2.43-2.34.91Z"/>
              <path class="cls-5" d="M194.06,222.31c-1.61-4.24-4.59-8.05-8.63-10.22-3.41-1.83-7.39-2.53-11.19-1.68-.32.07-.63.15-.94.24-.85.25-1.69.59-2.48,1-.47.24-.93.51-1.37.8h0c-1.66,1.1-3.09,2.54-4.1,4.24-1.79,2.99-2.36,6.82-1.24,10.14.22.64.49,1.26.81,1.85h0c.13.24.26.47.41.7.48.74,1.05,1.44,1.68,2.06-.85.25-1.68.58-2.48,1-.17-.18-.33-.37-.48-.57-.37-.46-.71-.94-1.02-1.46-.73-1.2-1.28-2.51-1.62-3.9-.99-4.11-.01-8.58,2.39-12.03,1.41-2.03,3.33-3.67,5.51-4.84.35-.2.71-.38,1.08-.54.4-.18.8-.35,1.21-.49,1.08-.4,2.2-.69,3.33-.86,4.45-.69,9.02.48,12.81,2.84,3.99,2.49,6.97,6.46,8.64,10.83.57,1.51-1.76,2.43-2.34.91Z"/>
              <path class="cls-5" d="M187.78,243.1c-1.61-4.24-4.59-8.06-8.63-10.22-3.42-1.83-7.39-2.53-11.19-1.68-.32.07-.63.15-.94.25-.85.25-1.68.58-2.48,1-.26.13-.51.27-.75.41-1.93,1.14-3.59,2.71-4.73,4.62-1.79,2.99-2.36,6.82-1.24,10.14.35,1.03.85,2.02,1.47,2.91,0,.01,0,.01.01.02-.25,1.09-.51,2.21-.69,3.07t0,0c-1.67-1.74-2.9-3.9-3.48-6.32-.99-4.11-.01-8.58,2.39-12.04,1.41-2.03,3.33-3.67,5.51-4.84.53-.29,1.07-.55,1.63-.77.22-.09.44-.18.67-.26,1.08-.4,2.2-.69,3.33-.86,4.45-.69,9.02.47,12.81,2.84,3.99,2.49,6.97,6.46,8.64,10.83.57,1.51-1.76,2.43-2.34.91Z"/>
            </g>
          </g>
        </g>
      </g>
    </g>
  </g>
</svg>